<svg width="1588" height="327" viewBox="0 0 1588 327" fill="none" xmlns="http://www.w3.org/2000/svg">
<path d="M41.752 208C36.6686 208 32.7103 206.667 29.877 204C27.0436 201.25 25.627 197.5 25.627 192.75V124.25C25.627 122.667 26.0436 121.458 26.877 120.625C27.7103 119.708 28.8353 119.25 30.252 119.25C31.752 119.25 32.9186 119.708 33.752 120.625C34.5853 121.458 35.002 122.667 35.002 124.25V193C35.002 195.167 35.5853 196.917 36.752 198.25C38.002 199.583 39.627 200.25 41.627 200.25H83.252C86.502 200.25 88.127 201.542 88.127 204.125C88.127 205.375 87.7103 206.333 86.877 207C86.0436 207.667 84.8353 208 83.252 208H41.752ZM113.496 209.25C112.079 209.25 110.954 208.833 110.121 208C109.288 207.083 108.871 205.833 108.871 204.25V124.25C108.871 122.667 109.288 121.458 110.121 120.625C110.954 119.708 112.079 119.25 113.496 119.25C114.996 119.25 116.163 119.708 116.996 120.625C117.829 121.542 118.246 122.75 118.246 124.25V204.25C118.246 205.75 117.829 206.958 116.996 207.875C116.163 208.792 114.996 209.25 113.496 209.25ZM183.855 209.25C175.022 209.25 167.314 207.417 160.73 203.75C154.147 200.083 149.064 194.875 145.48 188.125C141.897 181.292 140.105 173.375 140.105 164.375C140.105 155.375 141.897 147.458 145.48 140.625C149.064 133.792 154.147 128.542 160.73 124.875C167.397 121.125 175.105 119.25 183.855 119.25C190.939 119.25 197.522 120.458 203.605 122.875C209.772 125.292 214.48 128.625 217.73 132.875C218.48 133.708 218.855 134.708 218.855 135.875C218.855 137.208 218.272 138.25 217.105 139C216.355 139.5 215.522 139.75 214.605 139.75C213.855 139.75 213.105 139.583 212.355 139.25C211.605 138.833 210.98 138.333 210.48 137.75C207.897 134.5 204.314 131.958 199.73 130.125C195.147 128.208 189.855 127.25 183.855 127.25C176.855 127.25 170.772 128.75 165.605 131.75C160.439 134.75 156.48 139.042 153.73 144.625C150.98 150.208 149.605 156.792 149.605 164.375C149.605 175.875 152.647 184.917 158.73 191.5C164.814 198 173.189 201.25 183.855 201.25C189.439 201.25 194.397 200.375 198.73 198.625C203.064 196.792 206.439 194.292 208.855 191.125C211.355 187.875 212.605 184.208 212.605 180.125V175.875C212.605 173.625 212.147 172 211.23 171C210.397 170 208.772 169.5 206.355 169.5H187.355C184.189 169.5 182.605 168.25 182.605 165.75C182.605 163.083 184.189 161.75 187.355 161.75H207.98C212.73 161.75 216.272 162.792 218.605 164.875C220.939 166.958 222.105 170.167 222.105 174.5V179.25C222.105 184.833 220.439 189.917 217.105 194.5C213.772 199.083 209.189 202.708 203.355 205.375C197.522 207.958 191.022 209.25 183.855 209.25ZM244.564 209.25C243.148 209.25 242.023 208.833 241.189 208C240.356 207.083 239.939 205.833 239.939 204.25V124.25C239.939 122.667 240.356 121.458 241.189 120.625C242.023 119.708 243.148 119.25 244.564 119.25C246.064 119.25 247.231 119.708 248.064 120.625C248.898 121.458 249.314 122.667 249.314 124.25V159.125H304.189V124.25C304.189 122.667 304.606 121.458 305.439 120.625C306.273 119.708 307.439 119.25 308.939 119.25C310.356 119.25 311.481 119.708 312.314 120.625C313.148 121.458 313.564 122.667 313.564 124.25V204.25C313.564 205.833 313.148 207.083 312.314 208C311.481 208.833 310.356 209.25 308.939 209.25C307.523 209.25 306.356 208.833 305.439 208C304.606 207.083 304.189 205.833 304.189 204.25V167H249.314V204.25C249.314 205.833 248.898 207.083 248.064 208C247.231 208.833 246.064 209.25 244.564 209.25ZM368.323 209.25C366.823 209.25 365.657 208.833 364.823 208C364.073 207.083 363.698 205.833 363.698 204.25V128.25H335.073C333.573 128.25 332.365 127.958 331.448 127.375C330.615 126.708 330.198 125.75 330.198 124.5C330.198 121.833 331.823 120.5 335.073 120.5H401.823C405.073 120.5 406.698 121.833 406.698 124.5C406.698 125.667 406.282 126.583 405.448 127.25C404.615 127.917 403.407 128.25 401.823 128.25H373.198V204.25C373.198 205.833 372.74 207.083 371.823 208C370.99 208.833 369.823 209.25 368.323 209.25ZM474.173 208C469.09 208 465.131 206.667 462.298 204C459.465 201.25 458.048 197.5 458.048 192.75V135.5C458.048 130.833 459.423 127.167 462.173 124.5C465.006 121.833 468.923 120.5 473.923 120.5H503.548C511.965 120.5 518.506 122.583 523.173 126.75C527.84 130.917 530.173 136.792 530.173 144.375C530.173 148.708 529.048 152.5 526.798 155.75C524.548 158.917 521.465 161.333 517.548 163V163.25C521.965 164.833 525.423 167.333 527.923 170.75C530.423 174.083 531.673 178.042 531.673 182.625C531.673 190.458 529.298 196.667 524.548 201.25C519.798 205.75 513.298 208 505.048 208H474.173ZM504.548 159.5C509.465 159.5 513.381 158.125 516.298 155.375C519.215 152.625 520.673 148.958 520.673 144.375C520.673 139.125 519.215 135.125 516.298 132.375C513.381 129.625 509.131 128.25 503.548 128.25H474.048C472.131 128.25 470.548 128.958 469.298 130.375C468.048 131.708 467.423 133.417 467.423 135.5V159.5H504.548ZM504.548 200.125C510.298 200.125 514.673 198.667 517.673 195.75C520.673 192.75 522.173 188.417 522.173 182.75C522.173 177.833 520.59 174 517.423 171.25C514.256 168.5 509.923 167.125 504.423 167.125H467.423V193C467.423 195.083 468.048 196.792 469.298 198.125C470.548 199.458 472.131 200.125 474.048 200.125H504.548ZM566.127 208C561.044 208 557.085 206.667 554.252 204C551.419 201.25 550.002 197.5 550.002 192.75V124.25C550.002 122.667 550.419 121.458 551.252 120.625C552.085 119.708 553.21 119.25 554.627 119.25C556.127 119.25 557.294 119.708 558.127 120.625C558.96 121.458 559.377 122.667 559.377 124.25V193C559.377 195.167 559.96 196.917 561.127 198.25C562.377 199.583 564.002 200.25 566.002 200.25H607.627C610.877 200.25 612.502 201.542 612.502 204.125C612.502 205.375 612.085 206.333 611.252 207C610.419 207.667 609.21 208 607.627 208H566.127ZM659.256 209.25C651.839 209.25 645.381 207.792 639.881 204.875C634.464 201.958 630.298 197.75 627.381 192.25C624.464 186.75 623.006 180.208 623.006 172.625V124.25C623.006 122.667 623.423 121.458 624.256 120.625C625.089 119.708 626.214 119.25 627.631 119.25C629.131 119.25 630.298 119.708 631.131 120.625C631.964 121.458 632.381 122.667 632.381 124.25V173C632.381 182 634.756 188.958 639.506 193.875C644.256 198.792 650.923 201.25 659.506 201.25C668.173 201.25 674.923 198.792 679.756 193.875C684.673 188.875 687.131 181.917 687.131 173V124.25C687.131 122.667 687.548 121.458 688.381 120.625C689.298 119.708 690.464 119.25 691.881 119.25C693.381 119.25 694.506 119.708 695.256 120.625C696.089 121.458 696.506 122.667 696.506 124.25V172.625C696.506 179.958 695.006 186.417 692.006 192C689.006 197.5 684.673 201.75 679.006 204.75C673.423 207.75 666.839 209.25 659.256 209.25ZM733.294 208C728.211 208 724.252 206.667 721.419 204C718.586 201.333 717.169 197.583 717.169 192.75V135.5C717.169 130.833 718.544 127.167 721.294 124.5C724.127 121.833 728.044 120.5 733.044 120.5H771.794C775.044 120.5 776.669 121.833 776.669 124.5C776.669 125.667 776.252 126.583 775.419 127.25C774.586 127.917 773.377 128.25 771.794 128.25H733.169C731.169 128.25 729.544 128.917 728.294 130.25C727.127 131.583 726.544 133.333 726.544 135.5V159.375H762.294C765.544 159.375 767.169 160.708 767.169 163.375C767.169 164.625 766.711 165.583 765.794 166.25C764.961 166.917 763.794 167.25 762.294 167.25H726.544V193C726.544 195.167 727.127 196.917 728.294 198.25C729.544 199.583 731.169 200.25 733.169 200.25H774.544C777.794 200.25 779.419 201.542 779.419 204.125C779.419 205.375 778.961 206.333 778.044 207C777.211 207.667 776.044 208 774.544 208H733.294ZM856.093 209.25C852.509 209.25 849.634 208.083 847.468 205.75C845.301 203.417 843.759 199.792 842.843 194.875L829.218 124.75C829.051 123.917 828.968 123.333 828.968 123C828.968 120.5 830.384 119.25 833.218 119.25C834.968 119.25 836.218 119.625 836.968 120.375C837.718 121.125 838.218 122.25 838.468 123.75L851.718 195.125C852.134 197.458 852.676 199.083 853.343 200C854.009 200.833 854.968 201.25 856.218 201.25C857.551 201.25 858.551 200.792 859.218 199.875C859.884 198.875 860.384 197.333 860.718 195.25L870.593 130.875C871.176 127.042 872.384 124.167 874.218 122.25C876.134 120.25 878.551 119.25 881.468 119.25C887.468 119.25 891.051 123.125 892.218 130.875L902.093 195.25C902.426 197.417 902.926 198.958 903.593 199.875C904.259 200.792 905.259 201.25 906.593 201.25C907.759 201.25 908.676 200.792 909.343 199.875C910.093 198.958 910.676 197.375 911.093 195.125L924.343 123.75C924.593 122.167 925.093 121.042 925.843 120.375C926.676 119.625 927.926 119.25 929.593 119.25C932.426 119.25 933.843 120.5 933.843 123C933.843 123.333 933.759 123.917 933.593 124.75L919.968 194.875C919.051 199.542 917.551 203.125 915.468 205.625C913.468 208.042 910.551 209.25 906.718 209.25C903.134 209.25 900.301 208.083 898.218 205.75C896.218 203.417 894.843 199.833 894.093 195L884.343 131.875C884.093 130.208 883.718 129.042 883.218 128.375C882.801 127.625 882.218 127.25 881.468 127.25C880.634 127.25 879.968 127.625 879.468 128.375C879.051 129.042 878.718 130.208 878.468 131.875L868.718 195C867.968 199.833 866.551 203.417 864.468 205.75C862.468 208.083 859.676 209.25 856.093 209.25ZM956.376 209.25C954.959 209.25 953.834 208.833 953.001 208C952.168 207.083 951.751 205.833 951.751 204.25V124.25C951.751 122.667 952.168 121.458 953.001 120.625C953.834 119.708 954.959 119.25 956.376 119.25C957.876 119.25 959.043 119.708 959.876 120.625C960.709 121.458 961.126 122.667 961.126 124.25V159.125H1016V124.25C1016 122.667 1016.42 121.458 1017.25 120.625C1018.08 119.708 1019.25 119.25 1020.75 119.25C1022.17 119.25 1023.29 119.708 1024.13 120.625C1024.96 121.458 1025.38 122.667 1025.38 124.25V204.25C1025.38 205.833 1024.96 207.083 1024.13 208C1023.29 208.833 1022.17 209.25 1020.75 209.25C1019.33 209.25 1018.17 208.833 1017.25 208C1016.42 207.083 1016 205.833 1016 204.25V167H961.126V204.25C961.126 205.833 960.709 207.083 959.876 208C959.043 208.833 957.876 209.25 956.376 209.25ZM1055.01 209.25C1053.59 209.25 1052.47 208.833 1051.63 208C1050.8 207.083 1050.38 205.833 1050.38 204.25V124.25C1050.38 122.667 1050.8 121.458 1051.63 120.625C1052.47 119.708 1053.59 119.25 1055.01 119.25C1056.51 119.25 1057.68 119.708 1058.51 120.625C1059.34 121.542 1059.76 122.75 1059.76 124.25V204.25C1059.76 205.75 1059.34 206.958 1058.51 207.875C1057.68 208.792 1056.51 209.25 1055.01 209.25ZM1118.49 209.25C1116.99 209.25 1115.83 208.833 1114.99 208C1114.24 207.083 1113.87 205.833 1113.87 204.25V128.25H1085.24C1083.74 128.25 1082.54 127.958 1081.62 127.375C1080.79 126.708 1080.37 125.75 1080.37 124.5C1080.37 121.833 1081.99 120.5 1085.24 120.5H1151.99C1155.24 120.5 1156.87 121.833 1156.87 124.5C1156.87 125.667 1156.45 126.583 1155.62 127.25C1154.79 127.917 1153.58 128.25 1151.99 128.25H1123.37V204.25C1123.37 205.833 1122.91 207.083 1121.99 208C1121.16 208.833 1119.99 209.25 1118.49 209.25ZM1189.65 208C1184.56 208 1180.6 206.667 1177.77 204C1174.94 201.333 1173.52 197.583 1173.52 192.75V135.5C1173.52 130.833 1174.9 127.167 1177.65 124.5C1180.48 121.833 1184.4 120.5 1189.4 120.5H1228.15C1231.4 120.5 1233.02 121.833 1233.02 124.5C1233.02 125.667 1232.6 126.583 1231.77 127.25C1230.94 127.917 1229.73 128.25 1228.15 128.25H1189.52C1187.52 128.25 1185.9 128.917 1184.65 130.25C1183.48 131.583 1182.9 133.333 1182.9 135.5V159.375H1218.65C1221.9 159.375 1223.52 160.708 1223.52 163.375C1223.52 164.625 1223.06 165.583 1222.15 166.25C1221.31 166.917 1220.15 167.25 1218.65 167.25H1182.9V193C1182.9 195.167 1183.48 196.917 1184.65 198.25C1185.9 199.583 1187.52 200.25 1189.52 200.25H1230.9C1234.15 200.25 1235.77 201.542 1235.77 204.125C1235.77 205.375 1235.31 206.333 1234.4 207C1233.56 207.667 1232.4 208 1230.9 208H1189.65Z" fill="white"/>
<path fill-rule="evenodd" clip-rule="evenodd" d="M1569.61 176C1565.71 251.214 1503.49 311 1427.31 311C1351.12 311 1288.9 251.214 1285 176H1311.04C1314.69 233.395 1359.9 279.497 1416.9 284.542C1416.84 285.019 1416.81 285.506 1416.81 286C1416.81 292.075 1421.73 297 1427.81 297C1433.88 297 1438.81 292.075 1438.81 286C1438.81 285.474 1438.77 284.956 1438.7 284.45C1495.24 278.963 1539.94 233.063 1543.57 176H1569.61ZM1569.56 160C1565.16 85.2565 1503.15 26 1427.31 26C1351.46 26 1289.45 85.2565 1285.06 160H1311.11C1315.21 103.099 1360.18 57.5201 1416.82 52.4659C1416.81 52.3114 1416.81 52.1561 1416.81 52C1416.81 45.9249 1421.73 41 1427.81 41C1433.88 41 1438.81 45.9249 1438.81 52C1438.81 52.1875 1438.8 52.3739 1438.79 52.5591C1494.95 58.0554 1539.42 103.433 1543.5 160H1569.56Z" fill="white"/>
<circle cx="1427.81" cy="183" r="17" fill="url(#paint0_linear_35_582)"/>
<circle cx="1364.81" cy="167" r="9" fill="url(#paint1_linear_35_582)"/>
<circle cx="1334.81" cy="172" r="10" fill="url(#paint2_linear_35_582)"/>
<circle cx="1487.81" cy="167" r="9" fill="url(#paint3_linear_35_582)"/>
<circle cx="1360.81" cy="244" r="7" fill="url(#paint4_linear_35_582)"/>
<circle cx="1496.81" cy="244" r="7" fill="url(#paint5_linear_35_582)"/>
<circle cx="1521.81" cy="172" r="10" fill="url(#paint6_linear_35_582)"/>
<path fill-rule="evenodd" clip-rule="evenodd" d="M1464.81 127C1471.43 127 1476.81 121.627 1476.81 115C1476.81 108.373 1471.43 103 1464.81 103C1458.18 103 1452.81 108.373 1452.81 115C1452.81 121.627 1458.18 127 1464.81 127ZM1464.81 117.824C1466.37 117.824 1467.63 116.559 1467.63 115C1467.63 113.441 1466.37 112.176 1464.81 112.176C1463.25 112.176 1461.98 113.441 1461.98 115C1461.98 116.559 1463.25 117.824 1464.81 117.824Z" fill="url(#paint7_linear_35_582)"/>
<path fill-rule="evenodd" clip-rule="evenodd" d="M1483.81 152C1490.43 152 1495.81 146.627 1495.81 140C1495.81 133.373 1490.43 128 1483.81 128C1477.18 128 1471.81 133.373 1471.81 140C1471.81 146.627 1477.18 152 1483.81 152ZM1483.81 142.824C1485.37 142.824 1486.63 141.559 1486.63 140C1486.63 138.441 1485.37 137.176 1483.81 137.176C1482.25 137.176 1480.98 138.441 1480.98 140C1480.98 141.559 1482.25 142.824 1483.81 142.824Z" fill="white"/>
<path fill-rule="evenodd" clip-rule="evenodd" d="M1390.81 127C1397.43 127 1402.81 121.627 1402.81 115C1402.81 108.373 1397.43 103 1390.81 103C1384.18 103 1378.81 108.373 1378.81 115C1378.81 121.627 1384.18 127 1390.81 127ZM1390.81 117.824C1392.37 117.824 1393.63 116.559 1393.63 115C1393.63 113.441 1392.37 112.176 1390.81 112.176C1389.25 112.176 1387.98 113.441 1387.98 115C1387.98 116.559 1389.25 117.824 1390.81 117.824Z" fill="white"/>
<path fill-rule="evenodd" clip-rule="evenodd" d="M1370.81 152C1377.43 152 1382.81 146.627 1382.81 140C1382.81 133.373 1377.43 128 1370.81 128C1364.18 128 1358.81 133.373 1358.81 140C1358.81 146.627 1364.18 152 1370.81 152ZM1370.81 142.824C1372.37 142.824 1373.63 141.559 1373.63 140C1373.63 138.441 1372.37 137.176 1370.81 137.176C1369.25 137.176 1367.98 138.441 1367.98 140C1367.98 141.559 1369.25 142.824 1370.81 142.824Z" fill="url(#paint8_linear_35_582)"/>
<path fill-rule="evenodd" clip-rule="evenodd" d="M1427.81 100C1437.19 100 1444.81 92.3888 1444.81 83C1444.81 73.6112 1437.19 66 1427.81 66C1418.42 66 1410.81 73.6112 1410.81 83C1410.81 92.3888 1418.42 100 1427.81 100ZM1427.81 91C1432.22 91 1435.81 87.4183 1435.81 83C1435.81 78.5817 1432.22 75 1427.81 75C1423.39 75 1419.81 78.5817 1419.81 83C1419.81 87.4183 1423.39 91 1427.81 91Z" fill="url(#paint9_linear_35_582)"/>
<path fill-rule="evenodd" clip-rule="evenodd" d="M1355.81 224C1365.19 224 1372.81 216.389 1372.81 207C1372.81 197.611 1365.19 190 1355.81 190C1346.42 190 1338.81 197.611 1338.81 207C1338.81 216.389 1346.42 224 1355.81 224ZM1355.81 215C1360.22 215 1363.81 211.418 1363.81 207C1363.81 202.582 1360.22 199 1355.81 199C1351.39 199 1347.81 202.582 1347.81 207C1347.81 211.418 1351.39 215 1355.81 215Z" fill="white"/>
<path fill-rule="evenodd" clip-rule="evenodd" d="M1355.81 224C1365.19 224 1372.81 216.389 1372.81 207C1372.81 197.611 1365.19 190 1355.81 190C1346.42 190 1338.81 197.611 1338.81 207C1338.81 216.389 1346.42 224 1355.81 224ZM1355.81 215C1360.22 215 1363.81 211.418 1363.81 207C1363.81 202.582 1360.22 199 1355.81 199C1351.39 199 1347.81 202.582 1347.81 207C1347.81 211.418 1351.39 215 1355.81 215Z" fill="white"/>
<path fill-rule="evenodd" clip-rule="evenodd" d="M1355.81 224C1365.19 224 1372.81 216.389 1372.81 207C1372.81 197.611 1365.19 190 1355.81 190C1346.42 190 1338.81 197.611 1338.81 207C1338.81 216.389 1346.42 224 1355.81 224ZM1355.81 215C1360.22 215 1363.81 211.418 1363.81 207C1363.81 202.582 1360.22 199 1355.81 199C1351.39 199 1347.81 202.582 1347.81 207C1347.81 211.418 1351.39 215 1355.81 215Z" fill="white"/>
<path fill-rule="evenodd" clip-rule="evenodd" d="M1499.81 224C1509.19 224 1516.81 216.389 1516.81 207C1516.81 197.611 1509.19 190 1499.81 190C1490.42 190 1482.81 197.611 1482.81 207C1482.81 216.389 1490.42 224 1499.81 224ZM1499.81 215C1504.22 215 1507.81 211.418 1507.81 207C1507.81 202.582 1504.22 199 1499.81 199C1495.39 199 1491.81 202.582 1491.81 207C1491.81 211.418 1495.39 215 1499.81 215Z" fill="white"/>
<path fill-rule="evenodd" clip-rule="evenodd" d="M1499.81 224C1509.19 224 1516.81 216.389 1516.81 207C1516.81 197.611 1509.19 190 1499.81 190C1490.42 190 1482.81 197.611 1482.81 207C1482.81 216.389 1490.42 224 1499.81 224ZM1499.81 215C1504.22 215 1507.81 211.418 1507.81 207C1507.81 202.582 1504.22 199 1499.81 199C1495.39 199 1491.81 202.582 1491.81 207C1491.81 211.418 1495.39 215 1499.81 215Z" fill="white"/>
<path fill-rule="evenodd" clip-rule="evenodd" d="M1499.81 224C1509.19 224 1516.81 216.389 1516.81 207C1516.81 197.611 1509.19 190 1499.81 190C1490.42 190 1482.81 197.611 1482.81 207C1482.81 216.389 1490.42 224 1499.81 224ZM1499.81 215C1504.22 215 1507.81 211.418 1507.81 207C1507.81 202.582 1504.22 199 1499.81 199C1495.39 199 1491.81 202.582 1491.81 207C1491.81 211.418 1495.39 215 1499.81 215Z" fill="white"/>
<circle cx="1336.81" cy="151" r="6" fill="url(#paint10_linear_35_582)"/>
<path fill-rule="evenodd" clip-rule="evenodd" d="M1397.62 87.9475C1400.29 87.2191 1401.86 84.4693 1401.13 81.8057C1400.4 79.1421 1397.65 77.5733 1394.99 78.3017C1386.19 80.7076 1377.4 85.7917 1370.46 90.5918C1363.49 95.4175 1358 100.232 1355.77 102.464C1351.9 106.334 1347.58 110.944 1343.4 117.849C1339.24 124.734 1335.32 133.722 1331.97 146.342C1331.96 146.394 1331.95 146.445 1331.94 146.496C1333.02 144.984 1334.8 144 1336.81 144C1339.1 144 1341.1 145.29 1342.11 147.185C1345.14 136.24 1348.55 128.662 1351.96 123.025C1355.53 117.118 1359.21 113.166 1362.84 109.536C1364.61 107.768 1369.62 103.332 1376.15 98.8144C1382.72 94.2706 1390.42 89.917 1397.62 87.9475Z" fill="white"/>
<circle cx="6" cy="6" r="6" transform="matrix(-1 0 0 1 1525.31 145)" fill="white"/>
<path fill-rule="evenodd" clip-rule="evenodd" d="M1458.49 87.9475C1455.82 87.2191 1454.26 84.4693 1454.98 81.8057C1455.71 79.1421 1458.46 77.5733 1461.13 78.3017C1469.92 80.7076 1478.72 85.7917 1485.65 90.5918C1492.62 95.4175 1498.11 100.232 1500.34 102.464C1504.21 106.334 1508.53 110.944 1512.71 117.849C1516.87 124.734 1520.79 133.722 1524.14 146.342C1524.15 146.394 1524.17 146.445 1524.18 146.496C1523.09 144.984 1521.31 144 1519.31 144C1517.01 144 1515.02 145.29 1514.01 147.185C1510.97 136.24 1507.56 128.662 1504.15 123.025C1500.58 117.118 1496.9 113.166 1493.27 109.536C1491.5 107.768 1486.49 103.332 1479.96 98.8144C1473.4 94.2706 1465.69 89.917 1458.49 87.9475Z" fill="white"/>
<path fill-rule="evenodd" clip-rule="evenodd" d="M1396.81 173C1400.12 173 1402.81 170.314 1402.81 167C1402.81 163.686 1400.12 161 1396.81 161C1395.58 161 1394.44 161.368 1393.49 162H1380.81H1375.81V172H1380.81H1393.49C1394.44 172.632 1395.58 173 1396.81 173Z" fill="white"/>
<path fill-rule="evenodd" clip-rule="evenodd" d="M1455.81 173C1452.49 173 1449.81 170.314 1449.81 167C1449.81 163.686 1452.49 161 1455.81 161C1457.03 161 1458.17 161.368 1459.12 162H1471.81H1476.81V172H1471.81H1459.12C1458.17 172.632 1457.03 173 1455.81 173Z" fill="white"/>
<path fill-rule="evenodd" clip-rule="evenodd" d="M1420.3 114.143C1420.38 111.67 1418.45 109.595 1415.97 109.503C1413.49 109.411 1411.4 111.35 1411.31 113.833L1415.81 114C1411.31 113.833 1411.31 113.835 1411.31 113.838L1411.31 113.842L1411.31 113.852L1411.31 113.875L1411.31 113.937C1411.3 113.984 1411.3 114.045 1411.3 114.118C1411.3 114.264 1411.3 114.46 1411.31 114.699C1411.32 115.175 1411.36 115.83 1411.44 116.606C1411.61 118.134 1412 120.257 1412.89 122.448C1413.78 124.643 1415.26 127.071 1417.7 128.954C1419.16 130.08 1420.86 130.931 1422.81 131.444C1422.81 131.462 1422.81 131.481 1422.81 131.5V158.5C1422.81 161.261 1425.04 163.5 1427.81 163.5C1430.57 163.5 1432.81 161.261 1432.81 158.5V131.5C1432.81 131.384 1432.8 131.269 1432.79 131.155C1434.34 130.641 1435.72 129.906 1436.94 128.991C1439.41 127.142 1440.95 124.754 1441.92 122.578C1442.88 120.406 1443.34 118.295 1443.57 116.769C1443.68 115.994 1443.74 115.341 1443.77 114.865C1443.79 114.627 1443.8 114.431 1443.8 114.285C1443.8 114.212 1443.8 114.151 1443.81 114.103L1443.81 114.042L1443.81 114.018L1443.81 114.008L1443.81 114.004C1443.81 114.002 1443.81 114 1439.31 114H1443.81C1443.81 111.515 1441.79 109.5 1439.31 109.5C1436.83 109.5 1434.82 111.502 1434.81 113.976C1434.81 113.982 1434.81 113.996 1434.8 114.018C1434.8 114.07 1434.8 114.164 1434.79 114.295C1434.77 114.558 1434.74 114.959 1434.67 115.45C1434.52 116.455 1434.23 117.719 1433.69 118.922C1433.16 120.121 1432.45 121.108 1431.54 121.791C1430.69 122.432 1429.4 123 1427.31 123C1425.21 123 1423.98 122.433 1423.2 121.828C1422.35 121.179 1421.7 120.232 1421.22 119.052C1420.74 117.868 1420.5 116.616 1420.39 115.612C1420.33 115.123 1420.31 114.723 1420.31 114.461C1420.3 114.331 1420.3 114.237 1420.3 114.185C1420.3 114.163 1420.3 114.149 1420.3 114.143Z" fill="white"/>
<path fill-rule="evenodd" clip-rule="evenodd" d="M1402.33 135.132C1402.4 132.648 1400.45 130.575 1397.96 130.502C1395.48 130.429 1393.4 132.383 1393.33 134.868C1393.18 139.979 1393.63 144.365 1396.28 147.679C1397.88 149.68 1400.03 150.939 1402.32 151.875C1403.24 154.007 1405.36 155.5 1407.83 155.5C1411.14 155.5 1413.83 152.814 1413.83 149.5C1413.83 146.186 1411.14 143.5 1407.83 143.5C1407.27 143.5 1406.72 143.578 1406.2 143.723C1404.4 143.043 1403.7 142.553 1403.31 142.061C1402.83 141.466 1402.18 140.03 1402.33 135.132Z" fill="url(#paint11_linear_35_582)"/>
<path fill-rule="evenodd" clip-rule="evenodd" d="M1453.31 135.132C1453.23 132.648 1455.19 130.575 1457.67 130.502C1460.16 130.429 1462.23 132.383 1462.3 134.868C1462.45 139.979 1462.01 144.365 1459.36 147.679C1457.76 149.68 1455.61 150.939 1453.32 151.875C1452.4 154.007 1450.28 155.5 1447.81 155.5C1444.49 155.5 1441.81 152.814 1441.81 149.5C1441.81 146.186 1444.49 143.5 1447.81 143.5C1448.37 143.5 1448.91 143.578 1449.43 143.723C1451.24 143.043 1451.93 142.553 1452.33 142.061C1452.8 141.466 1453.45 140.03 1453.31 135.132Z" fill="white"/>
<path fill-rule="evenodd" clip-rule="evenodd" d="M1391.81 253.317C1390.55 253.759 1389.21 254 1387.81 254C1381.18 254 1375.81 248.627 1375.81 242C1375.81 235.373 1381.18 230 1387.81 230C1394.42 230 1399.79 235.354 1399.81 241.967C1399.81 241.978 1399.81 241.989 1399.81 242V266C1399.81 268.209 1398.02 270 1395.81 270C1393.6 270 1391.81 268.209 1391.81 266V253.317ZM1390.63 242C1390.63 243.559 1389.37 244.824 1387.81 244.824C1386.25 244.824 1384.98 243.559 1384.98 242C1384.98 240.441 1386.25 239.176 1387.81 239.176C1389.37 239.176 1390.63 240.441 1390.63 242Z" fill="white"/>
<path fill-rule="evenodd" clip-rule="evenodd" d="M1463.81 253.317C1465.06 253.759 1466.4 254 1467.81 254C1474.43 254 1479.81 248.627 1479.81 242C1479.81 235.373 1474.43 230 1467.81 230C1461.19 230 1455.82 235.354 1455.81 241.967C1455.81 241.978 1455.81 241.989 1455.81 242V266C1455.81 268.209 1457.6 270 1459.81 270C1462.02 270 1463.81 268.209 1463.81 266V253.317ZM1464.98 242C1464.98 243.559 1466.25 244.824 1467.81 244.824C1469.37 244.824 1470.63 243.559 1470.63 242C1470.63 240.441 1469.37 239.176 1467.81 239.176C1466.25 239.176 1464.98 240.441 1464.98 242Z" fill="url(#paint12_linear_35_582)"/>
<path d="M1383.81 206.26C1399.86 205.133 1407.48 207.673 1411.31 213.929C1416.77 222.849 1414.81 227.429 1414.81 268.929" stroke="white" stroke-width="9" stroke-linecap="round"/>
<path d="M1473.15 206.26C1457.1 205.133 1449.48 207.673 1445.65 213.929C1440.19 222.849 1442.15 227.429 1442.15 268.929" stroke="white" stroke-width="9" stroke-linecap="round"/>
<defs>
<linearGradient id="paint0_linear_35_582" x1="1415.81" y1="171.5" x2="1442.31" y2="191" gradientUnits="userSpaceOnUse">
<stop stop-color="#DCFCFE"/>
<stop offset="1" stop-color="#47C7E1"/>
</linearGradient>
<linearGradient id="paint1_linear_35_582" x1="1358.45" y1="160.912" x2="1372.48" y2="171.235" gradientUnits="userSpaceOnUse">
<stop stop-color="#DCFCFE"/>
<stop offset="1" stop-color="#47C7E1"/>
</linearGradient>
<linearGradient id="paint2_linear_35_582" x1="1327.75" y1="165.235" x2="1343.34" y2="176.706" gradientUnits="userSpaceOnUse">
<stop stop-color="#DCFCFE"/>
<stop offset="1" stop-color="#47C7E1"/>
</linearGradient>
<linearGradient id="paint3_linear_35_582" x1="1481.45" y1="160.912" x2="1495.48" y2="171.235" gradientUnits="userSpaceOnUse">
<stop stop-color="#DCFCFE"/>
<stop offset="1" stop-color="#47C7E1"/>
</linearGradient>
<linearGradient id="paint4_linear_35_582" x1="1355.86" y1="239.265" x2="1366.78" y2="247.294" gradientUnits="userSpaceOnUse">
<stop stop-color="#DCFCFE"/>
<stop offset="1" stop-color="#47C7E1"/>
</linearGradient>
<linearGradient id="paint5_linear_35_582" x1="1491.86" y1="239.265" x2="1502.78" y2="247.294" gradientUnits="userSpaceOnUse">
<stop stop-color="#DCFCFE"/>
<stop offset="1" stop-color="#47C7E1"/>
</linearGradient>
<linearGradient id="paint6_linear_35_582" x1="1514.75" y1="165.235" x2="1530.34" y2="176.706" gradientUnits="userSpaceOnUse">
<stop stop-color="#DCFCFE"/>
<stop offset="1" stop-color="#47C7E1"/>
</linearGradient>
<linearGradient id="paint7_linear_35_582" x1="1456.34" y1="106.882" x2="1475.04" y2="120.647" gradientUnits="userSpaceOnUse">
<stop stop-color="#DCFCFE"/>
<stop offset="1" stop-color="#47C7E1"/>
</linearGradient>
<linearGradient id="paint8_linear_35_582" x1="1362.34" y1="131.882" x2="1381.04" y2="145.647" gradientUnits="userSpaceOnUse">
<stop stop-color="#DCFCFE"/>
<stop offset="1" stop-color="#47C7E1"/>
</linearGradient>
<linearGradient id="paint9_linear_35_582" x1="1415.81" y1="71.5" x2="1442.31" y2="91" gradientUnits="userSpaceOnUse">
<stop stop-color="#DCFCFE"/>
<stop offset="1" stop-color="#47C7E1"/>
</linearGradient>
<linearGradient id="paint10_linear_35_582" x1="1332.57" y1="146.941" x2="1341.92" y2="153.824" gradientUnits="userSpaceOnUse">
<stop stop-color="#DCFCFE"/>
<stop offset="1" stop-color="#47C7E1"/>
</linearGradient>
<linearGradient id="paint11_linear_35_582" x1="1403.57" y1="130.5" x2="1403.57" y2="155.5" gradientUnits="userSpaceOnUse">
<stop stop-color="#DCFCFE"/>
<stop offset="1" stop-color="#4AC8E1"/>
</linearGradient>
<linearGradient id="paint12_linear_35_582" x1="1460.81" y1="236" x2="1479.81" y2="267.5" gradientUnits="userSpaceOnUse">
<stop stop-color="#DAFBFE"/>
<stop offset="0.994192" stop-color="#4BC8E1"/>
</linearGradient>
</defs>
</svg>
