<svg width="1077" height="327" viewBox="0 0 1077 327" fill="none" xmlns="http://www.w3.org/2000/svg">
<g clip-path="url(#clip0_35_582)">
<path d="M345.651 194C342.601 194 340.226 193.2 338.526 191.6C336.826 189.95 335.976 187.7 335.976 184.85V143.75C335.976 142.8 336.226 142.075 336.726 141.575C337.226 141.025 337.901 140.75 338.751 140.75C339.651 140.75 340.351 141.025 340.851 141.575C341.351 142.075 341.601 142.8 341.601 143.75V185C341.601 186.3 341.951 187.35 342.651 188.15C343.401 188.95 344.376 189.35 345.576 189.35H370.551C372.501 189.35 373.476 190.125 373.476 191.675C373.476 192.425 373.226 193 372.726 193.4C372.226 193.8 371.501 194 370.551 194H345.651ZM388.698 194.75C387.848 194.75 387.173 194.5 386.673 194C386.173 193.45 385.923 192.7 385.923 191.75V143.75C385.923 142.8 386.173 142.075 386.673 141.575C387.173 141.025 387.848 140.75 388.698 140.75C389.598 140.75 390.298 141.025 390.798 141.575C391.298 142.125 391.548 142.85 391.548 143.75V191.75C391.548 192.65 391.298 193.375 390.798 193.925C390.298 194.475 389.598 194.75 388.698 194.75ZM430.913 194.75C425.613 194.75 420.988 193.65 417.038 191.45C413.088 189.25 410.038 186.125 407.888 182.075C405.738 177.975 404.663 173.225 404.663 167.825C404.663 162.425 405.738 157.675 407.888 153.575C410.038 149.475 413.088 146.325 417.038 144.125C421.038 141.875 425.663 140.75 430.913 140.75C435.163 140.75 439.113 141.475 442.763 142.925C446.463 144.375 449.288 146.375 451.238 148.925C451.688 149.425 451.913 150.025 451.913 150.725C451.913 151.525 451.563 152.15 450.863 152.6C450.413 152.9 449.913 153.05 449.363 153.05C448.913 153.05 448.463 152.95 448.013 152.75C447.563 152.5 447.188 152.2 446.888 151.85C445.338 149.9 443.188 148.375 440.438 147.275C437.688 146.125 434.513 145.55 430.913 145.55C426.713 145.55 423.063 146.45 419.963 148.25C416.863 150.05 414.488 152.625 412.838 155.975C411.188 159.325 410.363 163.275 410.363 167.825C410.363 174.725 412.188 180.15 415.838 184.1C419.488 188 424.513 189.95 430.913 189.95C434.263 189.95 437.238 189.425 439.838 188.375C442.438 187.275 444.463 185.775 445.913 183.875C447.413 181.925 448.163 179.725 448.163 177.275V174.725C448.163 173.375 447.888 172.4 447.338 171.8C446.838 171.2 445.863 170.9 444.413 170.9H433.013C431.113 170.9 430.163 170.15 430.163 168.65C430.163 167.05 431.113 166.25 433.013 166.25H445.388C448.238 166.25 450.363 166.875 451.763 168.125C453.163 169.375 453.863 171.3 453.863 173.9V176.75C453.863 180.1 452.863 183.15 450.863 185.9C448.863 188.65 446.113 190.825 442.613 192.425C439.113 193.975 435.213 194.75 430.913 194.75ZM467.339 194.75C466.489 194.75 465.814 194.5 465.314 194C464.814 193.45 464.564 192.7 464.564 191.75V143.75C464.564 142.8 464.814 142.075 465.314 141.575C465.814 141.025 466.489 140.75 467.339 140.75C468.239 140.75 468.939 141.025 469.439 141.575C469.939 142.075 470.189 142.8 470.189 143.75V164.675H503.114V143.75C503.114 142.8 503.364 142.075 503.864 141.575C504.364 141.025 505.064 140.75 505.964 140.75C506.814 140.75 507.489 141.025 507.989 141.575C508.489 142.075 508.739 142.8 508.739 143.75V191.75C508.739 192.7 508.489 193.45 507.989 194C507.489 194.5 506.814 194.75 505.964 194.75C505.114 194.75 504.414 194.5 503.864 194C503.364 193.45 503.114 192.7 503.114 191.75V169.4H470.189V191.75C470.189 192.7 469.939 193.45 469.439 194C468.939 194.5 468.239 194.75 467.339 194.75ZM541.594 194.75C540.694 194.75 539.994 194.5 539.494 194C539.044 193.45 538.819 192.7 538.819 191.75V146.15H521.644C520.744 146.15 520.019 145.975 519.469 145.625C518.969 145.225 518.719 144.65 518.719 143.9C518.719 142.3 519.694 141.5 521.644 141.5H561.694C563.644 141.5 564.619 142.3 564.619 143.9C564.619 144.6 564.369 145.15 563.869 145.55C563.369 145.95 562.644 146.15 561.694 146.15H544.519V191.75C544.519 192.7 544.244 193.45 543.694 194C543.194 194.5 542.494 194.75 541.594 194.75ZM605.104 194C602.054 194 599.679 193.2 597.979 191.6C596.279 189.95 595.429 187.7 595.429 184.85V150.5C595.429 147.7 596.254 145.5 597.904 143.9C599.604 142.3 601.954 141.5 604.954 141.5H622.729C627.779 141.5 631.704 142.75 634.504 145.25C637.304 147.75 638.704 151.275 638.704 155.825C638.704 158.425 638.029 160.7 636.679 162.65C635.329 164.55 633.479 166 631.129 167V167.15C633.779 168.1 635.854 169.6 637.354 171.65C638.854 173.65 639.604 176.025 639.604 178.775C639.604 183.475 638.179 187.2 635.329 189.95C632.479 192.65 628.579 194 623.629 194H605.104ZM623.329 164.9C626.279 164.9 628.629 164.075 630.379 162.425C632.129 160.775 633.004 158.575 633.004 155.825C633.004 152.675 632.129 150.275 630.379 148.625C628.629 146.975 626.079 146.15 622.729 146.15H605.029C603.879 146.15 602.929 146.575 602.179 147.425C601.429 148.225 601.054 149.25 601.054 150.5V164.9H623.329ZM623.329 189.275C626.779 189.275 629.404 188.4 631.204 186.65C633.004 184.85 633.904 182.25 633.904 178.85C633.904 175.9 632.954 173.6 631.054 171.95C629.154 170.3 626.554 169.475 623.254 169.475H601.054V185C601.054 186.25 601.429 187.275 602.179 188.075C602.929 188.875 603.879 189.275 605.029 189.275H623.329ZM660.276 194C657.226 194 654.851 193.2 653.151 191.6C651.451 189.95 650.601 187.7 650.601 184.85V143.75C650.601 142.8 650.851 142.075 651.351 141.575C651.851 141.025 652.526 140.75 653.376 140.75C654.276 140.75 654.976 141.025 655.476 141.575C655.976 142.075 656.226 142.8 656.226 143.75V185C656.226 186.3 656.576 187.35 657.276 188.15C658.026 188.95 659.001 189.35 660.201 189.35H685.176C687.126 189.35 688.101 190.125 688.101 191.675C688.101 192.425 687.851 193 687.351 193.4C686.851 193.8 686.126 194 685.176 194H660.276ZM716.154 194.75C711.704 194.75 707.829 193.875 704.529 192.125C701.279 190.375 698.779 187.85 697.029 184.55C695.279 181.25 694.404 177.325 694.404 172.775V143.75C694.404 142.8 694.654 142.075 695.154 141.575C695.654 141.025 696.329 140.75 697.179 140.75C698.079 140.75 698.779 141.025 699.279 141.575C699.779 142.075 700.029 142.8 700.029 143.75V173C700.029 178.4 701.454 182.575 704.304 185.525C707.154 188.475 711.154 189.95 716.304 189.95C721.504 189.95 725.554 188.475 728.454 185.525C731.404 182.525 732.879 178.35 732.879 173V143.75C732.879 142.8 733.129 142.075 733.629 141.575C734.179 141.025 734.879 140.75 735.729 140.75C736.629 140.75 737.304 141.025 737.754 141.575C738.254 142.075 738.504 142.8 738.504 143.75V172.775C738.504 177.175 737.604 181.05 735.804 184.4C734.004 187.7 731.404 190.25 728.004 192.05C724.654 193.85 720.704 194.75 716.154 194.75ZM760.576 194C757.526 194 755.151 193.2 753.451 191.6C751.751 190 750.901 187.75 750.901 184.85V150.5C750.901 147.7 751.726 145.5 753.376 143.9C755.076 142.3 757.426 141.5 760.426 141.5H783.676C785.626 141.5 786.601 142.3 786.601 143.9C786.601 144.6 786.351 145.15 785.851 145.55C785.351 145.95 784.626 146.15 783.676 146.15H760.501C759.301 146.15 758.326 146.55 757.576 147.35C756.876 148.15 756.526 149.2 756.526 150.5V164.825H777.976C779.926 164.825 780.901 165.625 780.901 167.225C780.901 167.975 780.626 168.55 780.076 168.95C779.576 169.35 778.876 169.55 777.976 169.55H756.526V185C756.526 186.3 756.876 187.35 757.576 188.15C758.326 188.95 759.301 189.35 760.501 189.35H785.326C787.276 189.35 788.251 190.125 788.251 191.675C788.251 192.425 787.976 193 787.426 193.4C786.926 193.8 786.226 194 785.326 194H760.576ZM834.256 194.75C832.106 194.75 830.381 194.05 829.081 192.65C827.781 191.25 826.856 189.075 826.306 186.125L818.131 144.05C818.031 143.55 817.981 143.2 817.981 143C817.981 141.5 818.831 140.75 820.531 140.75C821.581 140.75 822.331 140.975 822.781 141.425C823.231 141.875 823.531 142.55 823.681 143.45L831.631 186.275C831.881 187.675 832.206 188.65 832.606 189.2C833.006 189.7 833.581 189.95 834.331 189.95C835.131 189.95 835.731 189.675 836.131 189.125C836.531 188.525 836.831 187.6 837.031 186.35L842.956 147.725C843.306 145.425 844.031 143.7 845.131 142.55C846.281 141.35 847.731 140.75 849.481 140.75C853.081 140.75 855.231 143.075 855.931 147.725L861.856 186.35C862.056 187.65 862.356 188.575 862.756 189.125C863.156 189.675 863.756 189.95 864.556 189.95C865.256 189.95 865.806 189.675 866.206 189.125C866.656 188.575 867.006 187.625 867.256 186.275L875.206 143.45C875.356 142.5 875.656 141.825 876.106 141.425C876.606 140.975 877.356 140.75 878.356 140.75C880.056 140.75 880.906 141.5 880.906 143C880.906 143.2 880.856 143.55 880.756 144.05L872.581 186.125C872.031 188.925 871.131 191.075 869.881 192.575C868.681 194.025 866.931 194.75 864.631 194.75C862.481 194.75 860.781 194.05 859.531 192.65C858.331 191.25 857.506 189.1 857.056 186.2L851.206 148.325C851.056 147.325 850.831 146.625 850.531 146.225C850.281 145.775 849.931 145.55 849.481 145.55C848.981 145.55 848.581 145.775 848.281 146.225C848.031 146.625 847.831 147.325 847.681 148.325L841.831 186.2C841.381 189.1 840.531 191.25 839.281 192.65C838.081 194.05 836.406 194.75 834.256 194.75ZM894.426 194.75C893.576 194.75 892.901 194.5 892.401 194C891.901 193.45 891.651 192.7 891.651 191.75V143.75C891.651 142.8 891.901 142.075 892.401 141.575C892.901 141.025 893.576 140.75 894.426 140.75C895.326 140.75 896.026 141.025 896.526 141.575C897.026 142.075 897.276 142.8 897.276 143.75V164.675H930.201V143.75C930.201 142.8 930.451 142.075 930.951 141.575C931.451 141.025 932.151 140.75 933.051 140.75C933.901 140.75 934.576 141.025 935.076 141.575C935.576 142.075 935.826 142.8 935.826 143.75V191.75C935.826 192.7 935.576 193.45 935.076 194C934.576 194.5 933.901 194.75 933.051 194.75C932.201 194.75 931.501 194.5 930.951 194C930.451 193.45 930.201 192.7 930.201 191.75V169.4H897.276V191.75C897.276 192.7 897.026 193.45 896.526 194C896.026 194.5 895.326 194.75 894.426 194.75ZM953.606 194.75C952.756 194.75 952.081 194.5 951.581 194C951.081 193.45 950.831 192.7 950.831 191.75V143.75C950.831 142.8 951.081 142.075 951.581 141.575C952.081 141.025 952.756 140.75 953.606 140.75C954.506 140.75 955.206 141.025 955.706 141.575C956.206 142.125 956.456 142.85 956.456 143.75V191.75C956.456 192.65 956.206 193.375 955.706 193.925C955.206 194.475 954.506 194.75 953.606 194.75ZM991.696 194.75C990.796 194.75 990.096 194.5 989.596 194C989.146 193.45 988.921 192.7 988.921 191.75V146.15H971.746C970.846 146.15 970.121 145.975 969.571 145.625C969.071 145.225 968.821 144.65 968.821 143.9C968.821 142.3 969.796 141.5 971.746 141.5H1011.8C1013.75 141.5 1014.72 142.3 1014.72 143.9C1014.72 144.6 1014.47 145.15 1013.97 145.55C1013.47 145.95 1012.75 146.15 1011.8 146.15H994.621V191.75C994.621 192.7 994.346 193.45 993.796 194C993.296 194.5 992.596 194.75 991.696 194.75ZM1034.39 194C1031.34 194 1028.96 193.2 1027.26 191.6C1025.56 190 1024.71 187.75 1024.71 184.85V150.5C1024.71 147.7 1025.54 145.5 1027.19 143.9C1028.89 142.3 1031.24 141.5 1034.24 141.5H1057.49C1059.44 141.5 1060.41 142.3 1060.41 143.9C1060.41 144.6 1060.16 145.15 1059.66 145.55C1059.16 145.95 1058.44 146.15 1057.49 146.15H1034.31C1033.11 146.15 1032.14 146.55 1031.39 147.35C1030.69 148.15 1030.34 149.2 1030.34 150.5V164.825H1051.79C1053.74 164.825 1054.71 165.625 1054.71 167.225C1054.71 167.975 1054.44 168.55 1053.89 168.95C1053.39 169.35 1052.69 169.55 1051.79 169.55H1030.34V185C1030.34 186.3 1030.69 187.35 1031.39 188.15C1032.14 188.95 1033.11 189.35 1034.31 189.35H1059.14C1061.09 189.35 1062.06 190.125 1062.06 191.675C1062.06 192.425 1061.79 193 1061.24 193.4C1060.74 193.8 1060.04 194 1059.14 194H1034.39Z" fill="white"/>
<path fill-rule="evenodd" clip-rule="evenodd" d="M294.612 176C290.712 251.214 228.491 311 152.306 311C76.1212 311 13.9001 251.214 10 176H36.0436C39.6903 233.395 84.8976 279.497 141.902 284.542C141.839 285.019 141.806 285.506 141.806 286C141.806 292.075 146.731 297 152.806 297C158.881 297 163.806 292.075 163.806 286C163.806 285.474 163.769 284.956 163.698 284.45C220.236 278.963 264.943 233.063 268.568 176H294.612ZM294.557 160C290.16 85.2565 228.153 26 152.306 26C76.4591 26 14.4524 85.2565 10.0553 160H36.1114C40.2143 103.099 85.1834 57.5201 141.816 52.4659C141.809 52.3114 141.806 52.1561 141.806 52C141.806 45.9249 146.731 41 152.806 41C158.881 41 163.806 45.9249 163.806 52C163.806 52.1875 163.801 52.3739 163.792 52.5591C219.955 58.0554 264.422 103.433 268.501 160H294.557Z" fill="white"/>
<circle cx="152.806" cy="183" r="17" fill="url(#paint0_linear_35_582)"/>
<circle cx="89.806" cy="167" r="9" fill="url(#paint1_linear_35_582)"/>
<circle cx="59.806" cy="172" r="10" fill="url(#paint2_linear_35_582)"/>
<circle cx="212.806" cy="167" r="9" fill="url(#paint3_linear_35_582)"/>
<circle cx="85.806" cy="244" r="7" fill="url(#paint4_linear_35_582)"/>
<circle cx="221.806" cy="244" r="7" fill="url(#paint5_linear_35_582)"/>
<circle cx="246.806" cy="172" r="10" fill="url(#paint6_linear_35_582)"/>
<path fill-rule="evenodd" clip-rule="evenodd" d="M189.806 127C196.433 127 201.806 121.627 201.806 115C201.806 108.373 196.433 103 189.806 103C183.179 103 177.806 108.373 177.806 115C177.806 121.627 183.179 127 189.806 127ZM189.806 117.824C191.365 117.824 192.63 116.559 192.63 115C192.63 113.441 191.365 112.176 189.806 112.176C188.247 112.176 186.982 113.441 186.982 115C186.982 116.559 188.247 117.824 189.806 117.824Z" fill="url(#paint7_linear_35_582)"/>
<path fill-rule="evenodd" clip-rule="evenodd" d="M208.806 152C215.433 152 220.806 146.627 220.806 140C220.806 133.373 215.433 128 208.806 128C202.179 128 196.806 133.373 196.806 140C196.806 146.627 202.179 152 208.806 152ZM208.806 142.824C210.365 142.824 211.63 141.559 211.63 140C211.63 138.441 210.365 137.176 208.806 137.176C207.247 137.176 205.982 138.441 205.982 140C205.982 141.559 207.247 142.824 208.806 142.824Z" fill="white"/>
<path fill-rule="evenodd" clip-rule="evenodd" d="M115.806 127C122.433 127 127.806 121.627 127.806 115C127.806 108.373 122.433 103 115.806 103C109.179 103 103.806 108.373 103.806 115C103.806 121.627 109.179 127 115.806 127ZM115.806 117.824C117.365 117.824 118.63 116.559 118.63 115C118.63 113.441 117.365 112.176 115.806 112.176C114.247 112.176 112.983 113.441 112.983 115C112.983 116.559 114.247 117.824 115.806 117.824Z" fill="white"/>
<path fill-rule="evenodd" clip-rule="evenodd" d="M95.806 152C102.433 152 107.806 146.627 107.806 140C107.806 133.373 102.433 128 95.806 128C89.1786 128 83.806 133.373 83.806 140C83.806 146.627 89.1786 152 95.806 152ZM95.806 142.824C97.3654 142.824 98.6295 141.559 98.6295 140C98.6295 138.441 97.3654 137.176 95.806 137.176C94.2466 137.176 92.9825 138.441 92.9825 140C92.9825 141.559 94.2466 142.824 95.806 142.824Z" fill="url(#paint8_linear_35_582)"/>
<path fill-rule="evenodd" clip-rule="evenodd" d="M152.806 100C162.195 100 169.806 92.3888 169.806 83C169.806 73.6112 162.195 66 152.806 66C143.417 66 135.806 73.6112 135.806 83C135.806 92.3888 143.417 100 152.806 100ZM152.806 91C157.224 91 160.806 87.4183 160.806 83C160.806 78.5817 157.224 75 152.806 75C148.388 75 144.806 78.5817 144.806 83C144.806 87.4183 148.388 91 152.806 91Z" fill="url(#paint9_linear_35_582)"/>
<path fill-rule="evenodd" clip-rule="evenodd" d="M80.806 224C90.1949 224 97.806 216.389 97.806 207C97.806 197.611 90.1949 190 80.806 190C71.4172 190 63.806 197.611 63.806 207C63.806 216.389 71.4172 224 80.806 224ZM80.806 215C85.2243 215 88.806 211.418 88.806 207C88.806 202.582 85.2243 199 80.806 199C76.3878 199 72.806 202.582 72.806 207C72.806 211.418 76.3878 215 80.806 215Z" fill="white"/>
<path fill-rule="evenodd" clip-rule="evenodd" d="M80.806 224C90.1949 224 97.806 216.389 97.806 207C97.806 197.611 90.1949 190 80.806 190C71.4172 190 63.806 197.611 63.806 207C63.806 216.389 71.4172 224 80.806 224ZM80.806 215C85.2243 215 88.806 211.418 88.806 207C88.806 202.582 85.2243 199 80.806 199C76.3878 199 72.806 202.582 72.806 207C72.806 211.418 76.3878 215 80.806 215Z" fill="white"/>
<path fill-rule="evenodd" clip-rule="evenodd" d="M80.806 224C90.1949 224 97.806 216.389 97.806 207C97.806 197.611 90.1949 190 80.806 190C71.4172 190 63.806 197.611 63.806 207C63.806 216.389 71.4172 224 80.806 224ZM80.806 215C85.2243 215 88.806 211.418 88.806 207C88.806 202.582 85.2243 199 80.806 199C76.3878 199 72.806 202.582 72.806 207C72.806 211.418 76.3878 215 80.806 215Z" fill="white"/>
<path fill-rule="evenodd" clip-rule="evenodd" d="M224.806 224C234.195 224 241.806 216.389 241.806 207C241.806 197.611 234.195 190 224.806 190C215.417 190 207.806 197.611 207.806 207C207.806 216.389 215.417 224 224.806 224ZM224.806 215C229.224 215 232.806 211.418 232.806 207C232.806 202.582 229.224 199 224.806 199C220.388 199 216.806 202.582 216.806 207C216.806 211.418 220.388 215 224.806 215Z" fill="white"/>
<path fill-rule="evenodd" clip-rule="evenodd" d="M224.806 224C234.195 224 241.806 216.389 241.806 207C241.806 197.611 234.195 190 224.806 190C215.417 190 207.806 197.611 207.806 207C207.806 216.389 215.417 224 224.806 224ZM224.806 215C229.224 215 232.806 211.418 232.806 207C232.806 202.582 229.224 199 224.806 199C220.388 199 216.806 202.582 216.806 207C216.806 211.418 220.388 215 224.806 215Z" fill="white"/>
<path fill-rule="evenodd" clip-rule="evenodd" d="M224.806 224C234.195 224 241.806 216.389 241.806 207C241.806 197.611 234.195 190 224.806 190C215.417 190 207.806 197.611 207.806 207C207.806 216.389 215.417 224 224.806 224ZM224.806 215C229.224 215 232.806 211.418 232.806 207C232.806 202.582 229.224 199 224.806 199C220.388 199 216.806 202.582 216.806 207C216.806 211.418 220.388 215 224.806 215Z" fill="white"/>
<circle cx="61.806" cy="151" r="6" fill="url(#paint10_linear_35_582)"/>
<path fill-rule="evenodd" clip-rule="evenodd" d="M122.625 87.9475C125.288 87.2191 126.857 84.4693 126.129 81.8057C125.4 79.1421 122.651 77.5733 119.987 78.3017C111.189 80.7076 102.396 85.7917 95.4604 90.5918C88.4881 95.4175 83.0028 100.232 80.7704 102.464C76.9008 106.334 72.5799 110.944 68.4028 117.849C64.2384 124.734 60.3215 133.722 56.9731 146.342C56.9596 146.394 56.9468 146.445 56.9349 146.496C58.0244 144.984 59.8002 144 61.806 144C64.1023 144 66.0973 145.29 67.1059 147.185C70.1422 136.24 73.5495 128.662 76.9592 123.025C80.5321 117.118 84.2111 113.166 87.8415 109.536C89.6091 107.768 94.6238 103.332 101.152 98.8144C107.716 94.2706 115.423 89.917 122.625 87.9475Z" fill="white"/>
<circle cx="6" cy="6" r="6" transform="matrix(-1 0 0 1 250.307 145)" fill="white"/>
<path fill-rule="evenodd" clip-rule="evenodd" d="M183.488 87.9475C180.825 87.2191 179.256 84.4693 179.984 81.8057C180.713 79.1421 183.462 77.5733 186.126 78.3017C194.924 80.7076 203.717 85.7917 210.653 90.5918C217.625 95.4175 223.11 100.232 225.343 102.464C229.212 106.334 233.533 110.944 237.71 117.849C241.875 124.734 245.791 133.722 249.14 146.342C249.153 146.394 249.166 146.445 249.178 146.496C248.089 144.984 246.313 144 244.307 144C242.011 144 240.016 145.29 239.007 147.185C235.971 136.24 232.563 128.662 229.154 123.025C225.581 117.118 221.902 113.166 218.271 109.536C216.504 107.768 211.489 103.332 204.961 98.8144C198.397 94.2706 190.69 89.917 183.488 87.9475Z" fill="white"/>
<path fill-rule="evenodd" clip-rule="evenodd" d="M121.806 173C125.12 173 127.806 170.314 127.806 167C127.806 163.686 125.12 161 121.806 161C120.579 161 119.439 161.368 118.488 162H105.806H100.806V172H105.806H118.488C119.439 172.632 120.579 173 121.806 173Z" fill="white"/>
<path fill-rule="evenodd" clip-rule="evenodd" d="M180.806 173C177.492 173 174.806 170.314 174.806 167C174.806 163.686 177.492 161 180.806 161C182.033 161 183.174 161.368 184.124 162H196.806H201.806V172H196.806H184.124C183.174 172.632 182.033 173 180.806 173Z" fill="white"/>
<path fill-rule="evenodd" clip-rule="evenodd" d="M145.304 114.143C145.383 111.67 143.448 109.595 140.973 109.503C138.489 109.411 136.401 111.35 136.309 113.833L140.806 114C136.309 113.833 136.309 113.835 136.309 113.838L136.309 113.842L136.309 113.852L136.308 113.875L136.306 113.937C136.305 113.984 136.304 114.045 136.303 114.118C136.302 114.264 136.303 114.46 136.31 114.699C136.322 115.175 136.357 115.83 136.443 116.606C136.613 118.134 136.996 120.257 137.889 122.448C138.783 124.643 140.258 127.071 142.698 128.954C144.159 130.08 145.862 130.931 147.806 131.444C147.806 131.462 147.806 131.481 147.806 131.5V158.5C147.806 161.261 150.045 163.5 152.806 163.5C155.567 163.5 157.806 161.261 157.806 158.5V131.5C157.806 131.384 157.802 131.269 157.794 131.155C159.34 130.641 160.723 129.906 161.944 128.991C164.408 127.142 165.951 124.754 166.918 122.578C167.883 120.406 168.344 118.295 168.57 116.769C168.685 115.994 168.743 115.341 168.774 114.865C168.789 114.627 168.797 114.431 168.801 114.285C168.803 114.212 168.805 114.151 168.805 114.103L168.806 114.042L168.806 114.018L168.806 114.008L168.806 114.004C168.806 114.002 168.806 114 164.306 114H168.806C168.806 111.515 166.791 109.5 164.306 109.5C161.829 109.5 159.819 111.502 159.806 113.976C159.806 113.982 159.806 113.996 159.805 114.018C159.804 114.07 159.8 114.164 159.792 114.295C159.775 114.558 159.74 114.959 159.667 115.45C159.518 116.455 159.229 117.719 158.694 118.922C158.161 120.121 157.454 121.108 156.544 121.791C155.689 122.432 154.401 123 152.306 123C150.21 123 148.979 122.433 148.195 121.828C147.354 121.179 146.704 120.232 146.223 119.052C145.741 117.868 145.499 116.616 145.388 115.612C145.334 115.123 145.313 114.723 145.306 114.461C145.303 114.331 145.303 114.237 145.303 114.185C145.303 114.173 145.303 114.163 145.304 114.156C145.304 114.15 145.304 114.146 145.304 114.143Z" fill="white"/>
<path fill-rule="evenodd" clip-rule="evenodd" d="M127.327 135.132C127.4 132.648 125.446 130.575 122.961 130.502C120.477 130.429 118.404 132.383 118.331 134.868C118.18 139.979 118.629 144.365 121.278 147.679C122.877 149.68 125.027 150.939 127.317 151.875C128.237 154.007 130.359 155.5 132.829 155.5C136.143 155.5 138.829 152.814 138.829 149.5C138.829 146.186 136.143 143.5 132.829 143.5C132.266 143.5 131.721 143.578 131.204 143.723C129.396 143.043 128.702 142.553 128.309 142.061C127.833 141.466 127.183 140.03 127.327 135.132Z" fill="url(#paint11_linear_35_582)"/>
<path fill-rule="evenodd" clip-rule="evenodd" d="M178.308 135.132C178.235 132.648 180.189 130.575 182.674 130.502C185.158 130.429 187.231 132.383 187.304 134.868C187.454 139.979 187.006 144.365 184.357 147.679C182.758 149.68 180.608 150.939 178.318 151.875C177.398 154.007 175.276 155.5 172.806 155.5C169.492 155.5 166.806 152.814 166.806 149.5C166.806 146.186 169.492 143.5 172.806 143.5C173.369 143.5 173.914 143.578 174.431 143.723C176.239 143.043 176.933 142.553 177.326 142.061C177.802 141.466 178.452 140.03 178.308 135.132Z" fill="white"/>
<path fill-rule="evenodd" clip-rule="evenodd" d="M116.806 253.317C115.555 253.759 114.209 254 112.806 254C106.179 254 100.806 248.627 100.806 242C100.806 235.373 106.179 230 112.806 230C119.422 230 124.788 235.354 124.806 241.967C124.806 241.978 124.806 241.989 124.806 242L124.806 266C124.806 268.209 123.015 270 120.806 270C118.597 270 116.806 268.209 116.806 266L116.806 253.317ZM115.63 242C115.63 243.559 114.365 244.824 112.806 244.824C111.247 244.824 109.983 243.559 109.983 242C109.983 240.441 111.247 239.176 112.806 239.176C114.365 239.176 115.63 240.441 115.63 242Z" fill="white"/>
<path fill-rule="evenodd" clip-rule="evenodd" d="M188.806 253.317C190.057 253.759 191.404 254 192.806 254C199.434 254 204.806 248.627 204.806 242C204.806 235.373 199.434 230 192.806 230C186.19 230 180.824 235.354 180.806 241.967C180.806 241.978 180.806 241.989 180.806 242V266C180.806 268.209 182.597 270 184.806 270C187.015 270 188.806 268.209 188.806 266V253.317ZM189.983 242C189.983 243.559 191.247 244.824 192.806 244.824C194.366 244.824 195.63 243.559 195.63 242C195.63 240.441 194.366 239.176 192.806 239.176C191.247 239.176 189.983 240.441 189.983 242Z" fill="url(#paint12_linear_35_582)"/>
<path d="M108.806 206.26C124.859 205.133 132.476 207.673 136.306 213.929C141.766 222.849 139.806 227.429 139.806 268.929" stroke="white" stroke-width="9" stroke-linecap="round"/>
<path d="M198.148 206.26C182.096 205.133 174.478 207.673 170.648 213.929C165.189 222.849 167.148 227.429 167.148 268.929" stroke="white" stroke-width="9" stroke-linecap="round"/>
</g>
<defs>
<linearGradient id="paint0_linear_35_582" x1="140.806" y1="171.5" x2="167.306" y2="191" gradientUnits="userSpaceOnUse">
<stop stop-color="#DCFCFE"/>
<stop offset="1" stop-color="#47C7E1"/>
</linearGradient>
<linearGradient id="paint1_linear_35_582" x1="83.4531" y1="160.912" x2="97.4825" y2="171.235" gradientUnits="userSpaceOnUse">
<stop stop-color="#DCFCFE"/>
<stop offset="1" stop-color="#47C7E1"/>
</linearGradient>
<linearGradient id="paint2_linear_35_582" x1="52.7472" y1="165.235" x2="68.3354" y2="176.706" gradientUnits="userSpaceOnUse">
<stop stop-color="#DCFCFE"/>
<stop offset="1" stop-color="#47C7E1"/>
</linearGradient>
<linearGradient id="paint3_linear_35_582" x1="206.453" y1="160.912" x2="220.483" y2="171.235" gradientUnits="userSpaceOnUse">
<stop stop-color="#DCFCFE"/>
<stop offset="1" stop-color="#47C7E1"/>
</linearGradient>
<linearGradient id="paint4_linear_35_582" x1="80.8649" y1="239.265" x2="91.7766" y2="247.294" gradientUnits="userSpaceOnUse">
<stop stop-color="#DCFCFE"/>
<stop offset="1" stop-color="#47C7E1"/>
</linearGradient>
<linearGradient id="paint5_linear_35_582" x1="216.865" y1="239.265" x2="227.777" y2="247.294" gradientUnits="userSpaceOnUse">
<stop stop-color="#DCFCFE"/>
<stop offset="1" stop-color="#47C7E1"/>
</linearGradient>
<linearGradient id="paint6_linear_35_582" x1="239.747" y1="165.235" x2="255.336" y2="176.706" gradientUnits="userSpaceOnUse">
<stop stop-color="#DCFCFE"/>
<stop offset="1" stop-color="#47C7E1"/>
</linearGradient>
<linearGradient id="paint7_linear_35_582" x1="181.335" y1="106.882" x2="200.041" y2="120.647" gradientUnits="userSpaceOnUse">
<stop stop-color="#DCFCFE"/>
<stop offset="1" stop-color="#47C7E1"/>
</linearGradient>
<linearGradient id="paint8_linear_35_582" x1="87.3354" y1="131.882" x2="106.041" y2="145.647" gradientUnits="userSpaceOnUse">
<stop stop-color="#DCFCFE"/>
<stop offset="1" stop-color="#47C7E1"/>
</linearGradient>
<linearGradient id="paint9_linear_35_582" x1="140.806" y1="71.5" x2="167.306" y2="91" gradientUnits="userSpaceOnUse">
<stop stop-color="#DCFCFE"/>
<stop offset="1" stop-color="#47C7E1"/>
</linearGradient>
<linearGradient id="paint10_linear_35_582" x1="57.5707" y1="146.941" x2="66.9237" y2="153.824" gradientUnits="userSpaceOnUse">
<stop stop-color="#DCFCFE"/>
<stop offset="1" stop-color="#47C7E1"/>
</linearGradient>
<linearGradient id="paint11_linear_35_582" x1="128.567" y1="130.5" x2="128.567" y2="155.5" gradientUnits="userSpaceOnUse">
<stop stop-color="#DCFCFE"/>
<stop offset="1" stop-color="#4AC8E1"/>
</linearGradient>
<linearGradient id="paint12_linear_35_582" x1="185.806" y1="236" x2="204.806" y2="267.5" gradientUnits="userSpaceOnUse">
<stop stop-color="#DAFBFE"/>
<stop offset="0.994192" stop-color="#4BC8E1"/>
</linearGradient>
<clipPath id="clip0_35_582">
<rect width="1077" height="327" fill="white"/>
</clipPath>
</defs>
</svg>
