<svg width="622" height="456" viewBox="0 0 622 456" fill="none" xmlns="http://www.w3.org/2000/svg">
<path d="M239.608 432.288C237.112 432.288 234.968 431.44 233.176 429.744C231.384 428.032 230.488 425.928 230.488 423.432C230.488 420.92 231.272 418.816 232.84 417.12C234.408 415.408 236.416 414.552 238.864 414.552C240.784 414.552 242.728 414.872 244.696 415.512L244.384 416.472C242.464 415.896 240.624 415.608 238.864 415.608C236.768 415.608 235.056 416.36 233.728 417.864C232.4 419.368 231.736 421.208 231.736 423.384C231.736 425.56 232.504 427.416 234.04 428.952C235.592 430.472 237.448 431.232 239.608 431.232C241.496 431.232 243.128 430.944 244.504 430.368L244.864 431.184C244.256 431.536 243.456 431.808 242.464 432C241.488 432.192 240.536 432.288 239.608 432.288ZM250.372 429.72C248.788 428.008 247.996 425.904 247.996 423.408C247.996 420.912 248.788 418.816 250.372 417.12C251.972 415.408 253.988 414.552 256.42 414.552C258.852 414.552 260.868 415.408 262.468 417.12C264.068 418.816 264.868 420.912 264.868 423.408C264.868 425.904 264.068 428.008 262.468 429.72C260.868 431.432 258.852 432.288 256.42 432.288C253.988 432.288 251.972 431.432 250.372 429.72ZM251.236 417.864C249.908 419.352 249.244 421.2 249.244 423.408C249.244 425.616 249.908 427.472 251.236 428.976C252.58 430.48 254.308 431.232 256.42 431.232C258.548 431.232 260.276 430.48 261.604 428.976C262.948 427.472 263.62 425.616 263.62 423.408C263.62 421.2 262.948 419.352 261.604 417.864C260.276 416.36 258.548 415.608 256.42 415.608C254.292 415.608 252.564 416.36 251.236 417.864ZM271.295 417.576L271.343 419.616V432H270.191V414.696H270.719L282.023 427.728C282.791 428.64 283.383 429.368 283.799 429.912C283.735 429.144 283.703 428.264 283.703 427.272V414.84H284.855V432.144H284.327L272.807 418.872C272.007 417.96 271.495 417.352 271.271 417.048L271.295 417.576ZM298.607 416.352C297.439 415.856 296.279 415.608 295.127 415.608C292.791 415.608 291.623 416.472 291.623 418.2C291.623 418.952 291.887 419.656 292.415 420.312C292.943 420.952 293.583 421.528 294.335 422.04C295.087 422.536 295.839 423.048 296.591 423.576C297.343 424.104 297.983 424.736 298.511 425.472C299.039 426.208 299.303 427.008 299.303 427.872C299.303 429.328 298.815 430.432 297.839 431.184C296.863 431.92 295.511 432.288 293.783 432.288C292.071 432.288 290.607 431.848 289.391 430.968L289.967 430.104C291.119 430.856 292.383 431.232 293.759 431.232C295.135 431.232 296.191 430.96 296.927 430.416C297.663 429.856 298.031 429.056 298.031 428.016C298.031 427.296 297.767 426.616 297.239 425.976C296.711 425.32 296.071 424.736 295.319 424.224C294.567 423.696 293.815 423.16 293.063 422.616C292.311 422.072 291.671 421.424 291.143 420.672C290.615 419.92 290.351 419.112 290.351 418.248C290.351 417.112 290.767 416.216 291.599 415.56C292.447 414.888 293.583 414.552 295.007 414.552C296.447 414.552 297.783 414.84 299.015 415.416L298.607 416.352ZM315.884 430.344C314.78 431.64 313.1 432.288 310.844 432.288C308.588 432.288 306.9 431.632 305.78 430.32C304.676 429.008 304.124 427.216 304.124 424.944V414.84H305.276V424.944C305.276 429.168 307.124 431.28 310.82 431.28C314.532 431.28 316.388 429.168 316.388 424.944V414.84H317.54V424.944C317.54 427.232 316.988 429.032 315.884 430.344ZM323.676 432V414.84H324.828V430.944H332.724V432H323.676ZM336.969 415.848H331.161V414.84H343.929V415.848H338.121V432H336.969V415.848ZM347.629 432V414.84H348.781V432H347.629ZM356.21 417.576L356.258 419.616V432H355.105V414.696H355.634L366.938 427.728C367.706 428.64 368.298 429.368 368.714 429.912C368.65 429.144 368.618 428.264 368.618 427.272V414.84H369.77V432.144H369.242L357.722 418.872C356.922 417.96 356.41 417.352 356.186 417.048L356.21 417.576ZM383.474 415.608C381.378 415.608 379.666 416.36 378.338 417.864C377.01 419.368 376.346 421.216 376.346 423.408C376.346 425.584 377.098 427.432 378.602 428.952C380.106 430.472 381.938 431.232 384.098 431.232C385.954 431.232 387.498 430.976 388.73 430.464V423.408H389.882V430.992C388.49 431.856 386.538 432.288 384.026 432.288C381.53 432.288 379.418 431.432 377.69 429.72C375.962 427.992 375.098 425.888 375.098 423.408C375.098 420.912 375.882 418.816 377.45 417.12C379.018 415.408 381.026 414.552 383.474 414.552C385.394 414.552 387.338 414.872 389.306 415.512L388.994 416.472C387.074 415.896 385.234 415.608 383.474 415.608Z" fill="white"/>
<path d="M52.6109 387C50.3742 387 48.6325 386.413 47.3859 385.24C46.1392 384.03 45.5159 382.38 45.5159 380.29V350.15C45.5159 349.453 45.6992 348.922 46.0659 348.555C46.4325 348.152 46.9275 347.95 47.5509 347.95C48.2109 347.95 48.7242 348.152 49.0909 348.555C49.4575 348.922 49.6409 349.453 49.6409 350.15V380.4C49.6409 381.353 49.8975 382.123 50.4109 382.71C50.9609 383.297 51.6759 383.59 52.5559 383.59H70.8709C72.3009 383.59 73.0159 384.158 73.0159 385.295C73.0159 385.845 72.8325 386.267 72.4659 386.56C72.0992 386.853 71.5675 387 70.8709 387H52.6109ZM84.1783 387.55C83.5549 387.55 83.0599 387.367 82.6933 387C82.3266 386.597 82.1433 386.047 82.1433 385.35V350.15C82.1433 349.453 82.3266 348.922 82.6933 348.555C83.0599 348.152 83.5549 347.95 84.1783 347.95C84.8383 347.95 85.3516 348.152 85.7183 348.555C86.0849 348.958 86.2683 349.49 86.2683 350.15V385.35C86.2683 386.01 86.0849 386.542 85.7183 386.945C85.3516 387.348 84.8383 387.55 84.1783 387.55ZM115.136 387.55C111.25 387.55 107.858 386.743 104.961 385.13C102.065 383.517 99.8281 381.225 98.2514 378.255C96.6747 375.248 95.8864 371.765 95.8864 367.805C95.8864 363.845 96.6747 360.362 98.2514 357.355C99.8281 354.348 102.065 352.038 104.961 350.425C107.895 348.775 111.286 347.95 115.136 347.95C118.253 347.95 121.15 348.482 123.826 349.545C126.54 350.608 128.611 352.075 130.041 353.945C130.371 354.312 130.536 354.752 130.536 355.265C130.536 355.852 130.28 356.31 129.766 356.64C129.436 356.86 129.07 356.97 128.666 356.97C128.336 356.97 128.006 356.897 127.676 356.75C127.346 356.567 127.071 356.347 126.851 356.09C125.715 354.66 124.138 353.542 122.121 352.735C120.105 351.892 117.776 351.47 115.136 351.47C112.056 351.47 109.38 352.13 107.106 353.45C104.833 354.77 103.091 356.658 101.881 359.115C100.671 361.572 100.066 364.468 100.066 367.805C100.066 372.865 101.405 376.843 104.081 379.74C106.758 382.6 110.443 384.03 115.136 384.03C117.593 384.03 119.775 383.645 121.681 382.875C123.588 382.068 125.073 380.968 126.136 379.575C127.236 378.145 127.786 376.532 127.786 374.735V372.865C127.786 371.875 127.585 371.16 127.181 370.72C126.815 370.28 126.1 370.06 125.036 370.06H116.676C115.283 370.06 114.586 369.51 114.586 368.41C114.586 367.237 115.283 366.65 116.676 366.65H125.751C127.841 366.65 129.4 367.108 130.426 368.025C131.453 368.942 131.966 370.353 131.966 372.26V374.35C131.966 376.807 131.233 379.043 129.766 381.06C128.3 383.077 126.283 384.672 123.716 385.845C121.15 386.982 118.29 387.55 115.136 387.55ZM141.848 387.55C141.225 387.55 140.73 387.367 140.363 387C139.997 386.597 139.813 386.047 139.813 385.35V350.15C139.813 349.453 139.997 348.922 140.363 348.555C140.73 348.152 141.225 347.95 141.848 347.95C142.508 347.95 143.022 348.152 143.388 348.555C143.755 348.922 143.938 349.453 143.938 350.15V365.495H168.083V350.15C168.083 349.453 168.267 348.922 168.633 348.555C169 348.152 169.513 347.95 170.173 347.95C170.797 347.95 171.292 348.152 171.658 348.555C172.025 348.922 172.208 349.453 172.208 350.15V385.35C172.208 386.047 172.025 386.597 171.658 387C171.292 387.367 170.797 387.55 170.173 387.55C169.55 387.55 169.037 387.367 168.633 387C168.267 386.597 168.083 386.047 168.083 385.35V368.96H143.938V385.35C143.938 386.047 143.755 386.597 143.388 387C143.022 387.367 142.508 387.55 141.848 387.55ZM196.302 387.55C195.642 387.55 195.129 387.367 194.762 387C194.432 386.597 194.267 386.047 194.267 385.35V351.91H181.672C181.012 351.91 180.481 351.782 180.077 351.525C179.711 351.232 179.527 350.81 179.527 350.26C179.527 349.087 180.242 348.5 181.672 348.5H211.042C212.472 348.5 213.187 349.087 213.187 350.26C213.187 350.773 213.004 351.177 212.637 351.47C212.271 351.763 211.739 351.91 211.042 351.91H198.447V385.35C198.447 386.047 198.246 386.597 197.842 387C197.476 387.367 196.962 387.55 196.302 387.55ZM242.876 387C240.639 387 238.898 386.413 237.651 385.24C236.404 384.03 235.781 382.38 235.781 380.29V355.1C235.781 353.047 236.386 351.433 237.596 350.26C238.843 349.087 240.566 348.5 242.766 348.5H255.801C259.504 348.5 262.383 349.417 264.436 351.25C266.489 353.083 267.516 355.668 267.516 359.005C267.516 360.912 267.021 362.58 266.031 364.01C265.041 365.403 263.684 366.467 261.961 367.2V367.31C263.904 368.007 265.426 369.107 266.526 370.61C267.626 372.077 268.176 373.818 268.176 375.835C268.176 379.282 267.131 382.013 265.041 384.03C262.951 386.01 260.091 387 256.461 387H242.876ZM256.241 365.66C258.404 365.66 260.128 365.055 261.411 363.845C262.694 362.635 263.336 361.022 263.336 359.005C263.336 356.695 262.694 354.935 261.411 353.725C260.128 352.515 258.258 351.91 255.801 351.91H242.821C241.978 351.91 241.281 352.222 240.731 352.845C240.181 353.432 239.906 354.183 239.906 355.1V365.66H256.241ZM256.241 383.535C258.771 383.535 260.696 382.893 262.016 381.61C263.336 380.29 263.996 378.383 263.996 375.89C263.996 373.727 263.299 372.04 261.906 370.83C260.513 369.62 258.606 369.015 256.186 369.015H239.906V380.4C239.906 381.317 240.181 382.068 240.731 382.655C241.281 383.242 241.978 383.535 242.821 383.535H256.241ZM283.336 387C281.099 387 279.358 386.413 278.111 385.24C276.864 384.03 276.241 382.38 276.241 380.29V350.15C276.241 349.453 276.424 348.922 276.791 348.555C277.158 348.152 277.653 347.95 278.276 347.95C278.936 347.95 279.449 348.152 279.816 348.555C280.183 348.922 280.366 349.453 280.366 350.15V380.4C280.366 381.353 280.623 382.123 281.136 382.71C281.686 383.297 282.401 383.59 283.281 383.59H301.596C303.026 383.59 303.741 384.158 303.741 385.295C303.741 385.845 303.558 386.267 303.191 386.56C302.824 386.853 302.293 387 301.596 387H283.336ZM324.313 387.55C321.049 387.55 318.208 386.908 315.788 385.625C313.404 384.342 311.571 382.49 310.288 380.07C309.004 377.65 308.363 374.772 308.363 371.435V350.15C308.363 349.453 308.546 348.922 308.913 348.555C309.279 348.152 309.774 347.95 310.398 347.95C311.058 347.95 311.571 348.152 311.938 348.555C312.304 348.922 312.488 349.453 312.488 350.15V371.6C312.488 375.56 313.533 378.622 315.623 380.785C317.713 382.948 320.646 384.03 324.423 384.03C328.236 384.03 331.206 382.948 333.333 380.785C335.496 378.585 336.578 375.523 336.578 371.6V350.15C336.578 349.453 336.761 348.922 337.128 348.555C337.531 348.152 338.044 347.95 338.668 347.95C339.328 347.95 339.823 348.152 340.153 348.555C340.519 348.922 340.703 349.453 340.703 350.15V371.435C340.703 374.662 340.043 377.503 338.723 379.96C337.403 382.38 335.496 384.25 333.003 385.57C330.546 386.89 327.649 387.55 324.313 387.55ZM356.889 387C354.653 387 352.911 386.413 351.664 385.24C350.418 384.067 349.794 382.417 349.794 380.29V355.1C349.794 353.047 350.399 351.433 351.609 350.26C352.856 349.087 354.579 348.5 356.779 348.5H373.829C375.259 348.5 375.974 349.087 375.974 350.26C375.974 350.773 375.791 351.177 375.424 351.47C375.058 351.763 374.526 351.91 373.829 351.91H356.834C355.954 351.91 355.239 352.203 354.689 352.79C354.176 353.377 353.919 354.147 353.919 355.1V365.605H369.649C371.079 365.605 371.794 366.192 371.794 367.365C371.794 367.915 371.593 368.337 371.189 368.63C370.823 368.923 370.309 369.07 369.649 369.07H353.919V380.4C353.919 381.353 354.176 382.123 354.689 382.71C355.239 383.297 355.954 383.59 356.834 383.59H375.039C376.469 383.59 377.184 384.158 377.184 385.295C377.184 385.845 376.983 386.267 376.579 386.56C376.213 386.853 375.699 387 375.039 387H356.889ZM410.921 387.55C409.344 387.55 408.079 387.037 407.126 386.01C406.172 384.983 405.494 383.388 405.091 381.225L399.096 350.37C399.022 350.003 398.986 349.747 398.986 349.6C398.986 348.5 399.609 347.95 400.856 347.95C401.626 347.95 402.176 348.115 402.506 348.445C402.836 348.775 403.056 349.27 403.166 349.93L408.996 381.335C409.179 382.362 409.417 383.077 409.711 383.48C410.004 383.847 410.426 384.03 410.976 384.03C411.562 384.03 412.002 383.828 412.296 383.425C412.589 382.985 412.809 382.307 412.956 381.39L417.301 353.065C417.557 351.378 418.089 350.113 418.896 349.27C419.739 348.39 420.802 347.95 422.086 347.95C424.726 347.95 426.302 349.655 426.816 353.065L431.161 381.39C431.307 382.343 431.527 383.022 431.821 383.425C432.114 383.828 432.554 384.03 433.141 384.03C433.654 384.03 434.057 383.828 434.351 383.425C434.681 383.022 434.937 382.325 435.121 381.335L440.951 349.93C441.061 349.233 441.281 348.738 441.611 348.445C441.977 348.115 442.527 347.95 443.261 347.95C444.507 347.95 445.131 348.5 445.131 349.6C445.131 349.747 445.094 350.003 445.021 350.37L439.026 381.225C438.622 383.278 437.962 384.855 437.046 385.955C436.166 387.018 434.882 387.55 433.196 387.55C431.619 387.55 430.372 387.037 429.456 386.01C428.576 384.983 427.971 383.407 427.641 381.28L423.351 353.505C423.241 352.772 423.076 352.258 422.856 351.965C422.672 351.635 422.416 351.47 422.086 351.47C421.719 351.47 421.426 351.635 421.206 351.965C421.022 352.258 420.876 352.772 420.766 353.505L416.476 381.28C416.146 383.407 415.522 384.983 414.606 386.01C413.726 387.037 412.497 387.55 410.921 387.55ZM455.045 387.55C454.422 387.55 453.927 387.367 453.56 387C453.194 386.597 453.01 386.047 453.01 385.35V350.15C453.01 349.453 453.194 348.922 453.56 348.555C453.927 348.152 454.422 347.95 455.045 347.95C455.705 347.95 456.219 348.152 456.585 348.555C456.952 348.922 457.135 349.453 457.135 350.15V365.495H481.28V350.15C481.28 349.453 481.464 348.922 481.83 348.555C482.197 348.152 482.71 347.95 483.37 347.95C483.994 347.95 484.489 348.152 484.855 348.555C485.222 348.922 485.405 349.453 485.405 350.15V385.35C485.405 386.047 485.222 386.597 484.855 387C484.489 387.367 483.994 387.55 483.37 387.55C482.747 387.55 482.234 387.367 481.83 387C481.464 386.597 481.28 386.047 481.28 385.35V368.96H457.135V385.35C457.135 386.047 456.952 386.597 456.585 387C456.219 387.367 455.705 387.55 455.045 387.55ZM498.444 387.55C497.821 387.55 497.326 387.367 496.959 387C496.593 386.597 496.409 386.047 496.409 385.35V350.15C496.409 349.453 496.593 348.922 496.959 348.555C497.326 348.152 497.821 347.95 498.444 347.95C499.104 347.95 499.618 348.152 499.984 348.555C500.351 348.958 500.534 349.49 500.534 350.15V385.35C500.534 386.01 500.351 386.542 499.984 386.945C499.618 387.348 499.104 387.55 498.444 387.55ZM526.377 387.55C525.717 387.55 525.204 387.367 524.837 387C524.507 386.597 524.342 386.047 524.342 385.35V351.91H511.747C511.087 351.91 510.556 351.782 510.152 351.525C509.786 351.232 509.602 350.81 509.602 350.26C509.602 349.087 510.317 348.5 511.747 348.5H541.117C542.547 348.5 543.262 349.087 543.262 350.26C543.262 350.773 543.079 351.177 542.712 351.47C542.346 351.763 541.814 351.91 541.117 351.91H528.522V385.35C528.522 386.047 528.321 386.597 527.917 387C527.551 387.367 527.037 387.55 526.377 387.55ZM557.684 387C555.448 387 553.706 386.413 552.459 385.24C551.213 384.067 550.589 382.417 550.589 380.29V355.1C550.589 353.047 551.194 351.433 552.404 350.26C553.651 349.087 555.374 348.5 557.574 348.5H574.624C576.054 348.5 576.769 349.087 576.769 350.26C576.769 350.773 576.586 351.177 576.219 351.47C575.853 351.763 575.321 351.91 574.624 351.91H557.629C556.749 351.91 556.034 352.203 555.484 352.79C554.971 353.377 554.714 354.147 554.714 355.1V365.605H570.444C571.874 365.605 572.589 366.192 572.589 367.365C572.589 367.915 572.388 368.337 571.984 368.63C571.618 368.923 571.104 369.07 570.444 369.07H554.714V380.4C554.714 381.353 554.971 382.123 555.484 382.71C556.034 383.297 556.749 383.59 557.629 383.59H575.834C577.264 383.59 577.979 384.158 577.979 385.295C577.979 385.845 577.778 386.267 577.374 386.56C577.008 386.853 576.494 387 575.834 387H557.684Z" fill="white"/>
<path fill-rule="evenodd" clip-rule="evenodd" d="M453.612 176C449.712 251.214 387.491 311 311.306 311C235.121 311 172.9 251.214 169 176H195.044C198.69 233.395 243.898 279.497 300.902 284.542C300.839 285.019 300.806 285.506 300.806 286C300.806 292.075 305.731 297 311.806 297C317.881 297 322.806 292.075 322.806 286C322.806 285.474 322.769 284.956 322.698 284.45C379.236 278.963 423.943 233.063 427.568 176H453.612ZM453.557 160C449.16 85.2565 387.153 26 311.306 26C235.459 26 173.452 85.2565 169.055 160H195.111C199.214 103.099 244.183 57.5201 300.816 52.4659C300.809 52.3114 300.806 52.1561 300.806 52C300.806 45.9249 305.731 41 311.806 41C317.881 41 322.806 45.9249 322.806 52C322.806 52.1875 322.801 52.3739 322.792 52.5591C378.955 58.0554 423.422 103.433 427.501 160H453.557Z" fill="white"/>
<circle cx="311.806" cy="183" r="17" fill="url(#paint0_linear_28_432)"/>
<circle cx="248.806" cy="167" r="9" fill="url(#paint1_linear_28_432)"/>
<circle cx="218.806" cy="172" r="10" fill="url(#paint2_linear_28_432)"/>
<circle cx="371.806" cy="167" r="9" fill="url(#paint3_linear_28_432)"/>
<circle cx="244.806" cy="244" r="7" fill="url(#paint4_linear_28_432)"/>
<circle cx="380.806" cy="244" r="7" fill="url(#paint5_linear_28_432)"/>
<circle cx="405.806" cy="172" r="10" fill="url(#paint6_linear_28_432)"/>
<path fill-rule="evenodd" clip-rule="evenodd" d="M348.806 127C355.433 127 360.806 121.627 360.806 115C360.806 108.373 355.433 103 348.806 103C342.179 103 336.806 108.373 336.806 115C336.806 121.627 342.179 127 348.806 127ZM348.806 117.824C350.365 117.824 351.63 116.559 351.63 115C351.63 113.441 350.365 112.176 348.806 112.176C347.247 112.176 345.983 113.441 345.983 115C345.983 116.559 347.247 117.824 348.806 117.824Z" fill="url(#paint7_linear_28_432)"/>
<path fill-rule="evenodd" clip-rule="evenodd" d="M367.806 152C374.433 152 379.806 146.627 379.806 140C379.806 133.373 374.433 128 367.806 128C361.179 128 355.806 133.373 355.806 140C355.806 146.627 361.179 152 367.806 152ZM367.806 142.824C369.365 142.824 370.63 141.559 370.63 140C370.63 138.441 369.365 137.176 367.806 137.176C366.247 137.176 364.983 138.441 364.983 140C364.983 141.559 366.247 142.824 367.806 142.824Z" fill="white"/>
<path fill-rule="evenodd" clip-rule="evenodd" d="M274.806 127C281.433 127 286.806 121.627 286.806 115C286.806 108.373 281.433 103 274.806 103C268.179 103 262.806 108.373 262.806 115C262.806 121.627 268.179 127 274.806 127ZM274.806 117.824C276.365 117.824 277.63 116.559 277.63 115C277.63 113.441 276.365 112.176 274.806 112.176C273.247 112.176 271.983 113.441 271.983 115C271.983 116.559 273.247 117.824 274.806 117.824Z" fill="white"/>
<path fill-rule="evenodd" clip-rule="evenodd" d="M254.806 152C261.433 152 266.806 146.627 266.806 140C266.806 133.373 261.433 128 254.806 128C248.179 128 242.806 133.373 242.806 140C242.806 146.627 248.179 152 254.806 152ZM254.806 142.824C256.365 142.824 257.63 141.559 257.63 140C257.63 138.441 256.365 137.176 254.806 137.176C253.247 137.176 251.983 138.441 251.983 140C251.983 141.559 253.247 142.824 254.806 142.824Z" fill="url(#paint8_linear_28_432)"/>
<path fill-rule="evenodd" clip-rule="evenodd" d="M311.806 100C321.195 100 328.806 92.3888 328.806 83C328.806 73.6112 321.195 66 311.806 66C302.417 66 294.806 73.6112 294.806 83C294.806 92.3888 302.417 100 311.806 100ZM311.806 91C316.224 91 319.806 87.4183 319.806 83C319.806 78.5817 316.224 75 311.806 75C307.388 75 303.806 78.5817 303.806 83C303.806 87.4183 307.388 91 311.806 91Z" fill="url(#paint9_linear_28_432)"/>
<path fill-rule="evenodd" clip-rule="evenodd" d="M239.806 224C249.195 224 256.806 216.389 256.806 207C256.806 197.611 249.195 190 239.806 190C230.417 190 222.806 197.611 222.806 207C222.806 216.389 230.417 224 239.806 224ZM239.806 215C244.224 215 247.806 211.418 247.806 207C247.806 202.582 244.224 199 239.806 199C235.388 199 231.806 202.582 231.806 207C231.806 211.418 235.388 215 239.806 215Z" fill="white"/>
<path fill-rule="evenodd" clip-rule="evenodd" d="M239.806 224C249.195 224 256.806 216.389 256.806 207C256.806 197.611 249.195 190 239.806 190C230.417 190 222.806 197.611 222.806 207C222.806 216.389 230.417 224 239.806 224ZM239.806 215C244.224 215 247.806 211.418 247.806 207C247.806 202.582 244.224 199 239.806 199C235.388 199 231.806 202.582 231.806 207C231.806 211.418 235.388 215 239.806 215Z" fill="white"/>
<path fill-rule="evenodd" clip-rule="evenodd" d="M239.806 224C249.195 224 256.806 216.389 256.806 207C256.806 197.611 249.195 190 239.806 190C230.417 190 222.806 197.611 222.806 207C222.806 216.389 230.417 224 239.806 224ZM239.806 215C244.224 215 247.806 211.418 247.806 207C247.806 202.582 244.224 199 239.806 199C235.388 199 231.806 202.582 231.806 207C231.806 211.418 235.388 215 239.806 215Z" fill="white"/>
<path fill-rule="evenodd" clip-rule="evenodd" d="M383.806 224C393.195 224 400.806 216.389 400.806 207C400.806 197.611 393.195 190 383.806 190C374.417 190 366.806 197.611 366.806 207C366.806 216.389 374.417 224 383.806 224ZM383.806 215C388.224 215 391.806 211.418 391.806 207C391.806 202.582 388.224 199 383.806 199C379.388 199 375.806 202.582 375.806 207C375.806 211.418 379.388 215 383.806 215Z" fill="white"/>
<path fill-rule="evenodd" clip-rule="evenodd" d="M383.806 224C393.195 224 400.806 216.389 400.806 207C400.806 197.611 393.195 190 383.806 190C374.417 190 366.806 197.611 366.806 207C366.806 216.389 374.417 224 383.806 224ZM383.806 215C388.224 215 391.806 211.418 391.806 207C391.806 202.582 388.224 199 383.806 199C379.388 199 375.806 202.582 375.806 207C375.806 211.418 379.388 215 383.806 215Z" fill="white"/>
<path fill-rule="evenodd" clip-rule="evenodd" d="M383.806 224C393.195 224 400.806 216.389 400.806 207C400.806 197.611 393.195 190 383.806 190C374.417 190 366.806 197.611 366.806 207C366.806 216.389 374.417 224 383.806 224ZM383.806 215C388.224 215 391.806 211.418 391.806 207C391.806 202.582 388.224 199 383.806 199C379.388 199 375.806 202.582 375.806 207C375.806 211.418 379.388 215 383.806 215Z" fill="white"/>
<circle cx="220.806" cy="151" r="6" fill="url(#paint10_linear_28_432)"/>
<path fill-rule="evenodd" clip-rule="evenodd" d="M281.625 87.9475C284.288 87.2191 285.857 84.4693 285.129 81.8057C284.4 79.1421 281.651 77.5733 278.987 78.3017C270.189 80.7076 261.396 85.7917 254.46 90.5918C247.488 95.4175 242.003 100.232 239.77 102.464C235.901 106.334 231.58 110.944 227.403 117.849C223.238 124.734 219.321 133.722 215.973 146.342C215.96 146.394 215.947 146.445 215.935 146.496C217.024 144.984 218.8 144 220.806 144C223.102 144 225.097 145.29 226.106 147.185C229.142 136.24 232.55 128.662 235.959 123.025C239.532 117.118 243.211 113.166 246.841 109.536C248.609 107.768 253.624 103.332 260.152 98.8144C266.716 94.2706 274.423 89.917 281.625 87.9475Z" fill="white"/>
<circle cx="6" cy="6" r="6" transform="matrix(-1 0 0 1 409.307 145)" fill="white"/>
<path fill-rule="evenodd" clip-rule="evenodd" d="M342.488 87.9475C339.825 87.2191 338.256 84.4693 338.984 81.8057C339.713 79.1421 342.462 77.5733 345.126 78.3017C353.924 80.7076 362.718 85.7917 369.653 90.5918C376.625 95.4175 382.11 100.232 384.343 102.464C388.212 106.334 392.533 110.944 396.71 117.849C400.875 124.734 404.792 133.722 408.14 146.342C408.153 146.394 408.166 146.445 408.178 146.496C407.089 144.984 405.313 144 403.307 144C401.011 144 399.016 145.29 398.007 147.185C394.971 136.24 391.564 128.662 388.154 123.025C384.581 117.118 380.902 113.166 377.272 109.536C375.504 107.768 370.489 103.332 363.962 98.8144C357.397 94.2706 349.69 89.917 342.488 87.9475Z" fill="white"/>
<path fill-rule="evenodd" clip-rule="evenodd" d="M280.806 173C284.12 173 286.806 170.314 286.806 167C286.806 163.686 284.12 161 280.806 161C279.579 161 278.439 161.368 277.488 162H264.806H259.806V172H264.806H277.488C278.439 172.632 279.579 173 280.806 173Z" fill="white"/>
<path fill-rule="evenodd" clip-rule="evenodd" d="M339.806 173C336.492 173 333.806 170.314 333.806 167C333.806 163.686 336.492 161 339.806 161C341.033 161 342.174 161.368 343.124 162H355.806H360.806V172H355.806H343.124C342.174 172.632 341.033 173 339.806 173Z" fill="white"/>
<path fill-rule="evenodd" clip-rule="evenodd" d="M304.304 114.143C304.383 111.67 302.448 109.595 299.973 109.503C297.489 109.411 295.401 111.35 295.309 113.833L299.806 114C295.309 113.833 295.309 113.835 295.309 113.838L295.309 113.842L295.309 113.852L295.308 113.875L295.306 113.937C295.305 113.984 295.304 114.045 295.303 114.118C295.302 114.264 295.303 114.46 295.31 114.699C295.322 115.175 295.357 115.83 295.443 116.606C295.613 118.134 295.996 120.257 296.889 122.448C297.783 124.643 299.258 127.071 301.698 128.954C303.159 130.08 304.862 130.931 306.806 131.444C306.806 131.462 306.806 131.481 306.806 131.5V158.5C306.806 161.261 309.045 163.5 311.806 163.5C314.567 163.5 316.806 161.261 316.806 158.5V131.5C316.806 131.384 316.802 131.269 316.794 131.155C318.34 130.641 319.723 129.906 320.944 128.991C323.408 127.142 324.951 124.754 325.918 122.578C326.883 120.406 327.344 118.295 327.57 116.769C327.685 115.994 327.743 115.341 327.774 114.865C327.789 114.627 327.797 114.431 327.801 114.285C327.803 114.212 327.805 114.151 327.805 114.103L327.806 114.042L327.806 114.018L327.806 114.008L327.806 114.004C327.806 114.002 327.806 114 323.306 114H327.806C327.806 111.515 325.791 109.5 323.306 109.5C320.829 109.5 318.819 111.502 318.806 113.976C318.806 113.982 318.806 113.996 318.805 114.018C318.804 114.07 318.8 114.164 318.792 114.295C318.775 114.558 318.74 114.959 318.667 115.45C318.518 116.455 318.229 117.719 317.694 118.922C317.161 120.121 316.454 121.108 315.544 121.791C314.689 122.432 313.401 123 311.306 123C309.21 123 307.979 122.433 307.195 121.828C306.354 121.179 305.704 120.232 305.223 119.052C304.741 117.868 304.499 116.616 304.388 115.612C304.334 115.123 304.313 114.723 304.306 114.461C304.303 114.331 304.303 114.237 304.303 114.185C304.303 114.163 304.304 114.149 304.304 114.143Z" fill="white"/>
<path fill-rule="evenodd" clip-rule="evenodd" d="M286.327 135.132C286.4 132.648 284.446 130.575 281.961 130.502C279.477 130.429 277.404 132.383 277.331 134.868C277.18 139.979 277.629 144.365 280.278 147.679C281.877 149.68 284.027 150.939 286.317 151.875C287.237 154.007 289.359 155.5 291.829 155.5C295.143 155.5 297.829 152.814 297.829 149.5C297.829 146.186 295.143 143.5 291.829 143.5C291.266 143.5 290.721 143.578 290.204 143.723C288.396 143.043 287.702 142.553 287.309 142.061C286.833 141.466 286.183 140.03 286.327 135.132Z" fill="url(#paint11_linear_28_432)"/>
<path fill-rule="evenodd" clip-rule="evenodd" d="M337.308 135.132C337.235 132.648 339.189 130.575 341.674 130.502C344.158 130.429 346.231 132.383 346.304 134.868C346.454 139.979 346.006 144.365 343.357 147.679C341.758 149.68 339.608 150.939 337.318 151.875C336.398 154.007 334.276 155.5 331.806 155.5C328.492 155.5 325.806 152.814 325.806 149.5C325.806 146.186 328.492 143.5 331.806 143.5C332.369 143.5 332.914 143.578 333.431 143.723C335.239 143.043 335.933 142.553 336.326 142.061C336.802 141.466 337.452 140.03 337.308 135.132Z" fill="white"/>
<path fill-rule="evenodd" clip-rule="evenodd" d="M275.806 253.317C274.555 253.759 273.209 254 271.806 254C265.179 254 259.806 248.627 259.806 242C259.806 235.373 265.179 230 271.806 230C278.422 230 283.788 235.354 283.806 241.967C283.806 241.978 283.806 241.989 283.806 242L283.806 266C283.806 268.209 282.015 270 279.806 270C277.597 270 275.806 268.209 275.806 266L275.806 253.317ZM274.63 242C274.63 243.559 273.365 244.824 271.806 244.824C270.247 244.824 268.983 243.559 268.983 242C268.983 240.441 270.247 239.176 271.806 239.176C273.365 239.176 274.63 240.441 274.63 242Z" fill="white"/>
<path fill-rule="evenodd" clip-rule="evenodd" d="M347.806 253.317C349.057 253.759 350.404 254 351.806 254C358.434 254 363.806 248.627 363.806 242C363.806 235.373 358.434 230 351.806 230C345.19 230 339.824 235.354 339.806 241.967C339.806 241.978 339.806 241.989 339.806 242L339.806 266C339.806 268.209 341.597 270 343.806 270C346.015 270 347.806 268.209 347.806 266L347.806 253.317ZM348.983 242C348.983 243.559 350.247 244.824 351.806 244.824C353.366 244.824 354.63 243.559 354.63 242C354.63 240.441 353.366 239.176 351.806 239.176C350.247 239.176 348.983 240.441 348.983 242Z" fill="url(#paint12_linear_28_432)"/>
<path d="M267.806 206.26C283.859 205.133 291.476 207.673 295.306 213.929C300.766 222.849 298.806 227.429 298.806 268.929" stroke="white" stroke-width="9" stroke-linecap="round"/>
<path d="M357.148 206.26C341.096 205.133 333.478 207.673 329.648 213.929C324.189 222.849 326.148 227.429 326.148 268.929" stroke="white" stroke-width="9" stroke-linecap="round"/>
<defs>
<linearGradient id="paint0_linear_28_432" x1="299.806" y1="171.5" x2="326.306" y2="191" gradientUnits="userSpaceOnUse">
<stop stop-color="#DCFCFE"/>
<stop offset="1" stop-color="#47C7E1"/>
</linearGradient>
<linearGradient id="paint1_linear_28_432" x1="242.453" y1="160.912" x2="256.483" y2="171.235" gradientUnits="userSpaceOnUse">
<stop stop-color="#DCFCFE"/>
<stop offset="1" stop-color="#47C7E1"/>
</linearGradient>
<linearGradient id="paint2_linear_28_432" x1="211.747" y1="165.235" x2="227.335" y2="176.706" gradientUnits="userSpaceOnUse">
<stop stop-color="#DCFCFE"/>
<stop offset="1" stop-color="#47C7E1"/>
</linearGradient>
<linearGradient id="paint3_linear_28_432" x1="365.453" y1="160.912" x2="379.483" y2="171.235" gradientUnits="userSpaceOnUse">
<stop stop-color="#DCFCFE"/>
<stop offset="1" stop-color="#47C7E1"/>
</linearGradient>
<linearGradient id="paint4_linear_28_432" x1="239.865" y1="239.265" x2="250.777" y2="247.294" gradientUnits="userSpaceOnUse">
<stop stop-color="#DCFCFE"/>
<stop offset="1" stop-color="#47C7E1"/>
</linearGradient>
<linearGradient id="paint5_linear_28_432" x1="375.865" y1="239.265" x2="386.777" y2="247.294" gradientUnits="userSpaceOnUse">
<stop stop-color="#DCFCFE"/>
<stop offset="1" stop-color="#47C7E1"/>
</linearGradient>
<linearGradient id="paint6_linear_28_432" x1="398.747" y1="165.235" x2="414.335" y2="176.706" gradientUnits="userSpaceOnUse">
<stop stop-color="#DCFCFE"/>
<stop offset="1" stop-color="#47C7E1"/>
</linearGradient>
<linearGradient id="paint7_linear_28_432" x1="340.335" y1="106.882" x2="359.041" y2="120.647" gradientUnits="userSpaceOnUse">
<stop stop-color="#DCFCFE"/>
<stop offset="1" stop-color="#47C7E1"/>
</linearGradient>
<linearGradient id="paint8_linear_28_432" x1="246.335" y1="131.882" x2="265.041" y2="145.647" gradientUnits="userSpaceOnUse">
<stop stop-color="#DCFCFE"/>
<stop offset="1" stop-color="#47C7E1"/>
</linearGradient>
<linearGradient id="paint9_linear_28_432" x1="299.806" y1="71.5" x2="326.306" y2="91" gradientUnits="userSpaceOnUse">
<stop stop-color="#DCFCFE"/>
<stop offset="1" stop-color="#47C7E1"/>
</linearGradient>
<linearGradient id="paint10_linear_28_432" x1="216.571" y1="146.941" x2="225.924" y2="153.824" gradientUnits="userSpaceOnUse">
<stop stop-color="#DCFCFE"/>
<stop offset="1" stop-color="#47C7E1"/>
</linearGradient>
<linearGradient id="paint11_linear_28_432" x1="287.567" y1="130.5" x2="287.567" y2="155.5" gradientUnits="userSpaceOnUse">
<stop stop-color="#DCFCFE"/>
<stop offset="1" stop-color="#4AC8E1"/>
</linearGradient>
<linearGradient id="paint12_linear_28_432" x1="344.806" y1="236" x2="363.806" y2="267.5" gradientUnits="userSpaceOnUse">
<stop stop-color="#DAFBFE"/>
<stop offset="0.994192" stop-color="#4BC8E1"/>
</linearGradient>
</defs>
</svg>
