<svg width="1588" height="327" viewBox="0 0 1588 327" fill="none" xmlns="http://www.w3.org/2000/svg">
<path d="M373.752 208C368.669 208 364.71 206.667 361.877 204C359.044 201.25 357.627 197.5 357.627 192.75V124.25C357.627 122.667 358.044 121.458 358.877 120.625C359.71 119.708 360.835 119.25 362.252 119.25C363.752 119.25 364.919 119.708 365.752 120.625C366.585 121.458 367.002 122.667 367.002 124.25V193C367.002 195.167 367.585 196.917 368.752 198.25C370.002 199.583 371.627 200.25 373.627 200.25H415.252C418.502 200.25 420.127 201.542 420.127 204.125C420.127 205.375 419.71 206.333 418.877 207C418.044 207.667 416.835 208 415.252 208H373.752ZM445.496 209.25C444.079 209.25 442.954 208.833 442.121 208C441.288 207.083 440.871 205.833 440.871 204.25V124.25C440.871 122.667 441.288 121.458 442.121 120.625C442.954 119.708 444.079 119.25 445.496 119.25C446.996 119.25 448.163 119.708 448.996 120.625C449.829 121.542 450.246 122.75 450.246 124.25V204.25C450.246 205.75 449.829 206.958 448.996 207.875C448.163 208.792 446.996 209.25 445.496 209.25ZM515.855 209.25C507.022 209.25 499.314 207.417 492.73 203.75C486.147 200.083 481.064 194.875 477.48 188.125C473.897 181.292 472.105 173.375 472.105 164.375C472.105 155.375 473.897 147.458 477.48 140.625C481.064 133.792 486.147 128.542 492.73 124.875C499.397 121.125 507.105 119.25 515.855 119.25C522.939 119.25 529.522 120.458 535.605 122.875C541.772 125.292 546.48 128.625 549.73 132.875C550.48 133.708 550.855 134.708 550.855 135.875C550.855 137.208 550.272 138.25 549.105 139C548.355 139.5 547.522 139.75 546.605 139.75C545.855 139.75 545.105 139.583 544.355 139.25C543.605 138.833 542.98 138.333 542.48 137.75C539.897 134.5 536.314 131.958 531.73 130.125C527.147 128.208 521.855 127.25 515.855 127.25C508.855 127.25 502.772 128.75 497.605 131.75C492.439 134.75 488.48 139.042 485.73 144.625C482.98 150.208 481.605 156.792 481.605 164.375C481.605 175.875 484.647 184.917 490.73 191.5C496.814 198 505.189 201.25 515.855 201.25C521.439 201.25 526.397 200.375 530.73 198.625C535.064 196.792 538.439 194.292 540.855 191.125C543.355 187.875 544.605 184.208 544.605 180.125V175.875C544.605 173.625 544.147 172 543.23 171C542.397 170 540.772 169.5 538.355 169.5H519.355C516.189 169.5 514.605 168.25 514.605 165.75C514.605 163.083 516.189 161.75 519.355 161.75H539.98C544.73 161.75 548.272 162.792 550.605 164.875C552.939 166.958 554.105 170.167 554.105 174.5V179.25C554.105 184.833 552.439 189.917 549.105 194.5C545.772 199.083 541.189 202.708 535.355 205.375C529.522 207.958 523.022 209.25 515.855 209.25ZM576.564 209.25C575.148 209.25 574.023 208.833 573.189 208C572.356 207.083 571.939 205.833 571.939 204.25V124.25C571.939 122.667 572.356 121.458 573.189 120.625C574.023 119.708 575.148 119.25 576.564 119.25C578.064 119.25 579.231 119.708 580.064 120.625C580.898 121.458 581.314 122.667 581.314 124.25V159.125H636.189V124.25C636.189 122.667 636.606 121.458 637.439 120.625C638.273 119.708 639.439 119.25 640.939 119.25C642.356 119.25 643.481 119.708 644.314 120.625C645.148 121.458 645.564 122.667 645.564 124.25V204.25C645.564 205.833 645.148 207.083 644.314 208C643.481 208.833 642.356 209.25 640.939 209.25C639.523 209.25 638.356 208.833 637.439 208C636.606 207.083 636.189 205.833 636.189 204.25V167H581.314V204.25C581.314 205.833 580.898 207.083 580.064 208C579.231 208.833 578.064 209.25 576.564 209.25ZM700.323 209.25C698.823 209.25 697.657 208.833 696.823 208C696.073 207.083 695.698 205.833 695.698 204.25V128.25H667.073C665.573 128.25 664.365 127.958 663.448 127.375C662.615 126.708 662.198 125.75 662.198 124.5C662.198 121.833 663.823 120.5 667.073 120.5H733.823C737.073 120.5 738.698 121.833 738.698 124.5C738.698 125.667 738.282 126.583 737.448 127.25C736.615 127.917 735.407 128.25 733.823 128.25H705.198V204.25C705.198 205.833 704.74 207.083 703.823 208C702.99 208.833 701.823 209.25 700.323 209.25ZM806.173 208C801.09 208 797.131 206.667 794.298 204C791.465 201.25 790.048 197.5 790.048 192.75V135.5C790.048 130.833 791.423 127.167 794.173 124.5C797.006 121.833 800.923 120.5 805.923 120.5H835.548C843.965 120.5 850.506 122.583 855.173 126.75C859.84 130.917 862.173 136.792 862.173 144.375C862.173 148.708 861.048 152.5 858.798 155.75C856.548 158.917 853.465 161.333 849.548 163V163.25C853.965 164.833 857.423 167.333 859.923 170.75C862.423 174.083 863.673 178.042 863.673 182.625C863.673 190.458 861.298 196.667 856.548 201.25C851.798 205.75 845.298 208 837.048 208H806.173ZM836.548 159.5C841.465 159.5 845.381 158.125 848.298 155.375C851.215 152.625 852.673 148.958 852.673 144.375C852.673 139.125 851.215 135.125 848.298 132.375C845.381 129.625 841.131 128.25 835.548 128.25H806.048C804.131 128.25 802.548 128.958 801.298 130.375C800.048 131.708 799.423 133.417 799.423 135.5V159.5H836.548ZM836.548 200.125C842.298 200.125 846.673 198.667 849.673 195.75C852.673 192.75 854.173 188.417 854.173 182.75C854.173 177.833 852.59 174 849.423 171.25C846.256 168.5 841.923 167.125 836.423 167.125H799.423V193C799.423 195.083 800.048 196.792 801.298 198.125C802.548 199.458 804.131 200.125 806.048 200.125H836.548ZM898.127 208C893.044 208 889.085 206.667 886.252 204C883.419 201.25 882.002 197.5 882.002 192.75V124.25C882.002 122.667 882.419 121.458 883.252 120.625C884.085 119.708 885.21 119.25 886.627 119.25C888.127 119.25 889.294 119.708 890.127 120.625C890.96 121.458 891.377 122.667 891.377 124.25V193C891.377 195.167 891.96 196.917 893.127 198.25C894.377 199.583 896.002 200.25 898.002 200.25H939.627C942.877 200.25 944.502 201.542 944.502 204.125C944.502 205.375 944.085 206.333 943.252 207C942.419 207.667 941.21 208 939.627 208H898.127ZM991.256 209.25C983.839 209.25 977.381 207.792 971.881 204.875C966.464 201.958 962.298 197.75 959.381 192.25C956.464 186.75 955.006 180.208 955.006 172.625V124.25C955.006 122.667 955.423 121.458 956.256 120.625C957.089 119.708 958.214 119.25 959.631 119.25C961.131 119.25 962.298 119.708 963.131 120.625C963.964 121.458 964.381 122.667 964.381 124.25V173C964.381 182 966.756 188.958 971.506 193.875C976.256 198.792 982.923 201.25 991.506 201.25C1000.17 201.25 1006.92 198.792 1011.76 193.875C1016.67 188.875 1019.13 181.917 1019.13 173V124.25C1019.13 122.667 1019.55 121.458 1020.38 120.625C1021.3 119.708 1022.46 119.25 1023.88 119.25C1025.38 119.25 1026.51 119.708 1027.26 120.625C1028.09 121.458 1028.51 122.667 1028.51 124.25V172.625C1028.51 179.958 1027.01 186.417 1024.01 192C1021.01 197.5 1016.67 201.75 1011.01 204.75C1005.42 207.75 998.839 209.25 991.256 209.25ZM1065.29 208C1060.21 208 1056.25 206.667 1053.42 204C1050.59 201.333 1049.17 197.583 1049.17 192.75V135.5C1049.17 130.833 1050.54 127.167 1053.29 124.5C1056.13 121.833 1060.04 120.5 1065.04 120.5H1103.79C1107.04 120.5 1108.67 121.833 1108.67 124.5C1108.67 125.667 1108.25 126.583 1107.42 127.25C1106.59 127.917 1105.38 128.25 1103.79 128.25H1065.17C1063.17 128.25 1061.54 128.917 1060.29 130.25C1059.13 131.583 1058.54 133.333 1058.54 135.5V159.375H1094.29C1097.54 159.375 1099.17 160.708 1099.17 163.375C1099.17 164.625 1098.71 165.583 1097.79 166.25C1096.96 166.917 1095.79 167.25 1094.29 167.25H1058.54V193C1058.54 195.167 1059.13 196.917 1060.29 198.25C1061.54 199.583 1063.17 200.25 1065.17 200.25H1106.54C1109.79 200.25 1111.42 201.542 1111.42 204.125C1111.42 205.375 1110.96 206.333 1110.04 207C1109.21 207.667 1108.04 208 1106.54 208H1065.29ZM1188.09 209.25C1184.51 209.25 1181.63 208.083 1179.47 205.75C1177.3 203.417 1175.76 199.792 1174.84 194.875L1161.22 124.75C1161.05 123.917 1160.97 123.333 1160.97 123C1160.97 120.5 1162.38 119.25 1165.22 119.25C1166.97 119.25 1168.22 119.625 1168.97 120.375C1169.72 121.125 1170.22 122.25 1170.47 123.75L1183.72 195.125C1184.13 197.458 1184.68 199.083 1185.34 200C1186.01 200.833 1186.97 201.25 1188.22 201.25C1189.55 201.25 1190.55 200.792 1191.22 199.875C1191.88 198.875 1192.38 197.333 1192.72 195.25L1202.59 130.875C1203.18 127.042 1204.38 124.167 1206.22 122.25C1208.13 120.25 1210.55 119.25 1213.47 119.25C1219.47 119.25 1223.05 123.125 1224.22 130.875L1234.09 195.25C1234.43 197.417 1234.93 198.958 1235.59 199.875C1236.26 200.792 1237.26 201.25 1238.59 201.25C1239.76 201.25 1240.68 200.792 1241.34 199.875C1242.09 198.958 1242.68 197.375 1243.09 195.125L1256.34 123.75C1256.59 122.167 1257.09 121.042 1257.84 120.375C1258.68 119.625 1259.93 119.25 1261.59 119.25C1264.43 119.25 1265.84 120.5 1265.84 123C1265.84 123.333 1265.76 123.917 1265.59 124.75L1251.97 194.875C1251.05 199.542 1249.55 203.125 1247.47 205.625C1245.47 208.042 1242.55 209.25 1238.72 209.25C1235.13 209.25 1232.3 208.083 1230.22 205.75C1228.22 203.417 1226.84 199.833 1226.09 195L1216.34 131.875C1216.09 130.208 1215.72 129.042 1215.22 128.375C1214.8 127.625 1214.22 127.25 1213.47 127.25C1212.63 127.25 1211.97 127.625 1211.47 128.375C1211.05 129.042 1210.72 130.208 1210.47 131.875L1200.72 195C1199.97 199.833 1198.55 203.417 1196.47 205.75C1194.47 208.083 1191.68 209.25 1188.09 209.25ZM1288.38 209.25C1286.96 209.25 1285.83 208.833 1285 208C1284.17 207.083 1283.75 205.833 1283.75 204.25V124.25C1283.75 122.667 1284.17 121.458 1285 120.625C1285.83 119.708 1286.96 119.25 1288.38 119.25C1289.88 119.25 1291.04 119.708 1291.88 120.625C1292.71 121.458 1293.13 122.667 1293.13 124.25V159.125H1348V124.25C1348 122.667 1348.42 121.458 1349.25 120.625C1350.08 119.708 1351.25 119.25 1352.75 119.25C1354.17 119.25 1355.29 119.708 1356.13 120.625C1356.96 121.458 1357.38 122.667 1357.38 124.25V204.25C1357.38 205.833 1356.96 207.083 1356.13 208C1355.29 208.833 1354.17 209.25 1352.75 209.25C1351.33 209.25 1350.17 208.833 1349.25 208C1348.42 207.083 1348 205.833 1348 204.25V167H1293.13V204.25C1293.13 205.833 1292.71 207.083 1291.88 208C1291.04 208.833 1289.88 209.25 1288.38 209.25ZM1387.01 209.25C1385.59 209.25 1384.47 208.833 1383.63 208C1382.8 207.083 1382.38 205.833 1382.38 204.25V124.25C1382.38 122.667 1382.8 121.458 1383.63 120.625C1384.47 119.708 1385.59 119.25 1387.01 119.25C1388.51 119.25 1389.68 119.708 1390.51 120.625C1391.34 121.542 1391.76 122.75 1391.76 124.25V204.25C1391.76 205.75 1391.34 206.958 1390.51 207.875C1389.68 208.792 1388.51 209.25 1387.01 209.25ZM1450.49 209.25C1448.99 209.25 1447.83 208.833 1446.99 208C1446.24 207.083 1445.87 205.833 1445.87 204.25V128.25H1417.24C1415.74 128.25 1414.54 127.958 1413.62 127.375C1412.79 126.708 1412.37 125.75 1412.37 124.5C1412.37 121.833 1413.99 120.5 1417.24 120.5H1483.99C1487.24 120.5 1488.87 121.833 1488.87 124.5C1488.87 125.667 1488.45 126.583 1487.62 127.25C1486.79 127.917 1485.58 128.25 1483.99 128.25H1455.37V204.25C1455.37 205.833 1454.91 207.083 1453.99 208C1453.16 208.833 1451.99 209.25 1450.49 209.25ZM1521.65 208C1516.56 208 1512.6 206.667 1509.77 204C1506.94 201.333 1505.52 197.583 1505.52 192.75V135.5C1505.52 130.833 1506.9 127.167 1509.65 124.5C1512.48 121.833 1516.4 120.5 1521.4 120.5H1560.15C1563.4 120.5 1565.02 121.833 1565.02 124.5C1565.02 125.667 1564.6 126.583 1563.77 127.25C1562.94 127.917 1561.73 128.25 1560.15 128.25H1521.52C1519.52 128.25 1517.9 128.917 1516.65 130.25C1515.48 131.583 1514.9 133.333 1514.9 135.5V159.375H1550.65C1553.9 159.375 1555.52 160.708 1555.52 163.375C1555.52 164.625 1555.06 165.583 1554.15 166.25C1553.31 166.917 1552.15 167.25 1550.65 167.25H1514.9V193C1514.9 195.167 1515.48 196.917 1516.65 198.25C1517.9 199.583 1519.52 200.25 1521.52 200.25H1562.9C1566.15 200.25 1567.77 201.542 1567.77 204.125C1567.77 205.375 1567.31 206.333 1566.4 207C1565.56 207.667 1564.4 208 1562.9 208H1521.65Z" fill="white"/>
<path fill-rule="evenodd" clip-rule="evenodd" d="M309.612 176C305.712 251.214 243.491 311 167.306 311C91.1212 311 28.9001 251.214 25 176H51.0436C54.6903 233.395 99.8976 279.497 156.902 284.542C156.839 285.019 156.806 285.506 156.806 286C156.806 292.075 161.731 297 167.806 297C173.881 297 178.806 292.075 178.806 286C178.806 285.474 178.769 284.956 178.698 284.45C235.236 278.963 279.943 233.063 283.568 176H309.612ZM309.557 160C305.16 85.2565 243.153 26 167.306 26C91.4591 26 29.4524 85.2565 25.0553 160H51.1114C55.2143 103.099 100.183 57.5201 156.816 52.4659C156.809 52.3114 156.806 52.1561 156.806 52C156.806 45.9249 161.731 41 167.806 41C173.881 41 178.806 45.9249 178.806 52C178.806 52.1875 178.801 52.3739 178.792 52.5591C234.955 58.0554 279.422 103.433 283.501 160H309.557Z" fill="white"/>
<circle cx="167.806" cy="183" r="17" fill="url(#paint0_linear_35_582)"/>
<circle cx="104.806" cy="167" r="9" fill="url(#paint1_linear_35_582)"/>
<circle cx="74.806" cy="172" r="10" fill="url(#paint2_linear_35_582)"/>
<circle cx="227.806" cy="167" r="9" fill="url(#paint3_linear_35_582)"/>
<circle cx="100.806" cy="244" r="7" fill="url(#paint4_linear_35_582)"/>
<circle cx="236.806" cy="244" r="7" fill="url(#paint5_linear_35_582)"/>
<circle cx="261.806" cy="172" r="10" fill="url(#paint6_linear_35_582)"/>
<path fill-rule="evenodd" clip-rule="evenodd" d="M204.806 127C211.433 127 216.806 121.627 216.806 115C216.806 108.373 211.433 103 204.806 103C198.179 103 192.806 108.373 192.806 115C192.806 121.627 198.179 127 204.806 127ZM204.806 117.824C206.365 117.824 207.63 116.559 207.63 115C207.63 113.441 206.365 112.176 204.806 112.176C203.247 112.176 201.982 113.441 201.982 115C201.982 116.559 203.247 117.824 204.806 117.824Z" fill="url(#paint7_linear_35_582)"/>
<path fill-rule="evenodd" clip-rule="evenodd" d="M223.806 152C230.434 152 235.806 146.627 235.806 140C235.806 133.373 230.434 128 223.806 128C217.179 128 211.806 133.373 211.806 140C211.806 146.627 217.179 152 223.806 152ZM223.806 142.824C225.366 142.824 226.63 141.559 226.63 140C226.63 138.441 225.366 137.176 223.806 137.176C222.247 137.176 220.983 138.441 220.983 140C220.983 141.559 222.247 142.824 223.806 142.824Z" fill="white"/>
<path fill-rule="evenodd" clip-rule="evenodd" d="M130.806 127C137.433 127 142.806 121.627 142.806 115C142.806 108.373 137.433 103 130.806 103C124.179 103 118.806 108.373 118.806 115C118.806 121.627 124.179 127 130.806 127ZM130.806 117.824C132.365 117.824 133.63 116.559 133.63 115C133.63 113.441 132.365 112.176 130.806 112.176C129.247 112.176 127.983 113.441 127.983 115C127.983 116.559 129.247 117.824 130.806 117.824Z" fill="white"/>
<path fill-rule="evenodd" clip-rule="evenodd" d="M110.806 152C117.433 152 122.806 146.627 122.806 140C122.806 133.373 117.433 128 110.806 128C104.179 128 98.806 133.373 98.806 140C98.806 146.627 104.179 152 110.806 152ZM110.806 142.824C112.365 142.824 113.63 141.559 113.63 140C113.63 138.441 112.365 137.176 110.806 137.176C109.247 137.176 107.982 138.441 107.982 140C107.982 141.559 109.247 142.824 110.806 142.824Z" fill="url(#paint8_linear_35_582)"/>
<path fill-rule="evenodd" clip-rule="evenodd" d="M167.806 100C177.195 100 184.806 92.3888 184.806 83C184.806 73.6112 177.195 66 167.806 66C158.417 66 150.806 73.6112 150.806 83C150.806 92.3888 158.417 100 167.806 100ZM167.806 91C172.224 91 175.806 87.4183 175.806 83C175.806 78.5817 172.224 75 167.806 75C163.388 75 159.806 78.5817 159.806 83C159.806 87.4183 163.388 91 167.806 91Z" fill="url(#paint9_linear_35_582)"/>
<path fill-rule="evenodd" clip-rule="evenodd" d="M95.806 224C105.195 224 112.806 216.389 112.806 207C112.806 197.611 105.195 190 95.806 190C86.4172 190 78.806 197.611 78.806 207C78.806 216.389 86.4172 224 95.806 224ZM95.806 215C100.224 215 103.806 211.418 103.806 207C103.806 202.582 100.224 199 95.806 199C91.3878 199 87.806 202.582 87.806 207C87.806 211.418 91.3878 215 95.806 215Z" fill="white"/>
<path fill-rule="evenodd" clip-rule="evenodd" d="M95.806 224C105.195 224 112.806 216.389 112.806 207C112.806 197.611 105.195 190 95.806 190C86.4172 190 78.806 197.611 78.806 207C78.806 216.389 86.4172 224 95.806 224ZM95.806 215C100.224 215 103.806 211.418 103.806 207C103.806 202.582 100.224 199 95.806 199C91.3878 199 87.806 202.582 87.806 207C87.806 211.418 91.3878 215 95.806 215Z" fill="white"/>
<path fill-rule="evenodd" clip-rule="evenodd" d="M95.806 224C105.195 224 112.806 216.389 112.806 207C112.806 197.611 105.195 190 95.806 190C86.4172 190 78.806 197.611 78.806 207C78.806 216.389 86.4172 224 95.806 224ZM95.806 215C100.224 215 103.806 211.418 103.806 207C103.806 202.582 100.224 199 95.806 199C91.3878 199 87.806 202.582 87.806 207C87.806 211.418 91.3878 215 95.806 215Z" fill="white"/>
<path fill-rule="evenodd" clip-rule="evenodd" d="M239.806 224C249.195 224 256.806 216.389 256.806 207C256.806 197.611 249.195 190 239.806 190C230.417 190 222.806 197.611 222.806 207C222.806 216.389 230.417 224 239.806 224ZM239.806 215C244.224 215 247.806 211.418 247.806 207C247.806 202.582 244.224 199 239.806 199C235.388 199 231.806 202.582 231.806 207C231.806 211.418 235.388 215 239.806 215Z" fill="white"/>
<path fill-rule="evenodd" clip-rule="evenodd" d="M239.806 224C249.195 224 256.806 216.389 256.806 207C256.806 197.611 249.195 190 239.806 190C230.417 190 222.806 197.611 222.806 207C222.806 216.389 230.417 224 239.806 224ZM239.806 215C244.224 215 247.806 211.418 247.806 207C247.806 202.582 244.224 199 239.806 199C235.388 199 231.806 202.582 231.806 207C231.806 211.418 235.388 215 239.806 215Z" fill="white"/>
<path fill-rule="evenodd" clip-rule="evenodd" d="M239.806 224C249.195 224 256.806 216.389 256.806 207C256.806 197.611 249.195 190 239.806 190C230.417 190 222.806 197.611 222.806 207C222.806 216.389 230.417 224 239.806 224ZM239.806 215C244.224 215 247.806 211.418 247.806 207C247.806 202.582 244.224 199 239.806 199C235.388 199 231.806 202.582 231.806 207C231.806 211.418 235.388 215 239.806 215Z" fill="white"/>
<circle cx="76.806" cy="151" r="6" fill="url(#paint10_linear_35_582)"/>
<path fill-rule="evenodd" clip-rule="evenodd" d="M137.625 87.9475C140.288 87.2191 141.857 84.4693 141.129 81.8057C140.4 79.1421 137.651 77.5733 134.987 78.3017C126.189 80.7076 117.396 85.7917 110.46 90.5918C103.488 95.4175 98.0028 100.232 95.7704 102.464C91.9008 106.334 87.5799 110.944 83.4028 117.849C79.2384 124.734 75.3215 133.722 71.9731 146.342C71.9596 146.394 71.9468 146.445 71.9349 146.496C73.0244 144.984 74.8002 144 76.806 144C79.1023 144 81.0973 145.29 82.1059 147.185C85.1422 136.24 88.5495 128.662 91.9592 123.025C95.5321 117.118 99.2111 113.166 102.841 109.536C104.609 107.768 109.624 103.332 116.152 98.8144C122.716 94.2706 130.423 89.917 137.625 87.9475Z" fill="white"/>
<circle cx="6" cy="6" r="6" transform="matrix(-1 0 0 1 265.307 145)" fill="white"/>
<path fill-rule="evenodd" clip-rule="evenodd" d="M198.488 87.9475C195.825 87.2191 194.256 84.4693 194.984 81.8057C195.713 79.1421 198.462 77.5733 201.126 78.3017C209.924 80.7076 218.717 85.7917 225.653 90.5918C232.625 95.4175 238.11 100.232 240.343 102.464C244.212 106.334 248.533 110.944 252.71 117.849C256.875 124.734 260.791 133.722 264.14 146.342C264.153 146.394 264.166 146.445 264.178 146.496C263.089 144.984 261.313 144 259.307 144C257.011 144 255.016 145.29 254.007 147.185C250.971 136.24 247.563 128.662 244.154 123.025C240.581 117.118 236.902 113.166 233.271 109.536C231.504 107.768 226.489 103.332 219.961 98.8144C213.397 94.2706 205.69 89.917 198.488 87.9475Z" fill="white"/>
<path fill-rule="evenodd" clip-rule="evenodd" d="M136.806 173C140.12 173 142.806 170.314 142.806 167C142.806 163.686 140.12 161 136.806 161C135.579 161 134.439 161.368 133.488 162H120.806H115.806V172H120.806H133.488C134.439 172.632 135.579 173 136.806 173Z" fill="white"/>
<path fill-rule="evenodd" clip-rule="evenodd" d="M195.806 173C192.492 173 189.806 170.314 189.806 167C189.806 163.686 192.492 161 195.806 161C197.033 161 198.174 161.368 199.124 162H211.806H216.806V172H211.806H199.124C198.174 172.632 197.033 173 195.806 173Z" fill="white"/>
<path fill-rule="evenodd" clip-rule="evenodd" d="M160.304 114.143C160.383 111.67 158.448 109.595 155.973 109.503C153.489 109.411 151.401 111.35 151.309 113.833L155.806 114C151.309 113.833 151.309 113.835 151.309 113.838L151.309 113.842L151.309 113.852L151.308 113.875L151.306 113.937C151.305 113.984 151.304 114.045 151.303 114.118C151.302 114.264 151.303 114.46 151.31 114.699C151.322 115.175 151.357 115.83 151.443 116.606C151.613 118.134 151.996 120.257 152.889 122.448C153.783 124.643 155.258 127.071 157.698 128.954C159.159 130.08 160.862 130.931 162.806 131.444C162.806 131.462 162.806 131.481 162.806 131.5V158.5C162.806 161.261 165.045 163.5 167.806 163.5C170.567 163.5 172.806 161.261 172.806 158.5V131.5C172.806 131.384 172.802 131.269 172.794 131.155C174.34 130.641 175.723 129.906 176.944 128.991C179.408 127.142 180.951 124.754 181.918 122.578C182.883 120.406 183.344 118.295 183.57 116.769C183.685 115.994 183.743 115.341 183.774 114.865C183.789 114.627 183.797 114.431 183.801 114.285C183.803 114.212 183.805 114.151 183.805 114.103L183.806 114.042L183.806 114.018L183.806 114.008L183.806 114.004C183.806 114.002 183.806 114 179.306 114H183.806C183.806 111.515 181.791 109.5 179.306 109.5C176.829 109.5 174.819 111.502 174.806 113.976C174.806 113.982 174.806 113.996 174.805 114.018C174.804 114.07 174.8 114.164 174.792 114.295C174.775 114.558 174.74 114.959 174.667 115.45C174.518 116.455 174.229 117.719 173.694 118.922C173.161 120.121 172.454 121.108 171.544 121.791C170.689 122.432 169.401 123 167.306 123C165.21 123 163.979 122.433 163.195 121.828C162.354 121.179 161.704 120.232 161.223 119.052C160.741 117.868 160.499 116.616 160.388 115.612C160.334 115.123 160.313 114.723 160.306 114.461C160.303 114.331 160.303 114.237 160.303 114.185C160.303 114.163 160.304 114.149 160.304 114.143Z" fill="white"/>
<path fill-rule="evenodd" clip-rule="evenodd" d="M142.327 135.132C142.4 132.648 140.446 130.575 137.961 130.502C135.477 130.429 133.404 132.383 133.331 134.868C133.18 139.979 133.629 144.365 136.278 147.679C137.877 149.68 140.027 150.939 142.317 151.875C143.237 154.007 145.359 155.5 147.829 155.5C151.143 155.5 153.829 152.814 153.829 149.5C153.829 146.186 151.143 143.5 147.829 143.5C147.266 143.5 146.721 143.578 146.204 143.723C144.396 143.043 143.702 142.553 143.309 142.061C142.833 141.466 142.183 140.03 142.327 135.132Z" fill="url(#paint11_linear_35_582)"/>
<path fill-rule="evenodd" clip-rule="evenodd" d="M193.308 135.132C193.235 132.648 195.189 130.575 197.674 130.502C200.158 130.429 202.231 132.383 202.304 134.868C202.454 139.979 202.006 144.365 199.357 147.679C197.758 149.68 195.608 150.939 193.318 151.875C192.398 154.007 190.276 155.5 187.806 155.5C184.492 155.5 181.806 152.814 181.806 149.5C181.806 146.186 184.492 143.5 187.806 143.5C188.369 143.5 188.914 143.578 189.431 143.723C191.239 143.043 191.933 142.553 192.326 142.061C192.802 141.466 193.452 140.03 193.308 135.132Z" fill="white"/>
<path fill-rule="evenodd" clip-rule="evenodd" d="M131.806 253.317C130.555 253.759 129.209 254 127.806 254C121.179 254 115.806 248.627 115.806 242C115.806 235.373 121.179 230 127.806 230C134.422 230 139.788 235.354 139.806 241.967C139.806 241.978 139.806 241.989 139.806 242V266C139.806 268.209 138.015 270 135.806 270C133.597 270 131.806 268.209 131.806 266V253.317ZM130.63 242C130.63 243.559 129.365 244.824 127.806 244.824C126.247 244.824 124.983 243.559 124.983 242C124.983 240.441 126.247 239.176 127.806 239.176C129.365 239.176 130.63 240.441 130.63 242Z" fill="white"/>
<path fill-rule="evenodd" clip-rule="evenodd" d="M203.806 253.317C205.057 253.759 206.404 254 207.806 254C214.434 254 219.806 248.627 219.806 242C219.806 235.373 214.434 230 207.806 230C201.19 230 195.824 235.354 195.806 241.967C195.806 241.978 195.806 241.989 195.806 242V266C195.806 268.209 197.597 270 199.806 270C202.015 270 203.806 268.209 203.806 266V253.317ZM204.983 242C204.983 243.559 206.247 244.824 207.806 244.824C209.366 244.824 210.63 243.559 210.63 242C210.63 240.441 209.366 239.176 207.806 239.176C206.247 239.176 204.983 240.441 204.983 242Z" fill="url(#paint12_linear_35_582)"/>
<path d="M123.806 206.26C139.859 205.133 147.476 207.673 151.306 213.929C156.766 222.849 154.806 227.429 154.806 268.929" stroke="white" stroke-width="9" stroke-linecap="round"/>
<path d="M213.148 206.26C197.096 205.133 189.478 207.673 185.648 213.929C180.189 222.849 182.148 227.429 182.148 268.929" stroke="white" stroke-width="9" stroke-linecap="round"/>
<defs>
<linearGradient id="paint0_linear_35_582" x1="155.806" y1="171.5" x2="182.306" y2="191" gradientUnits="userSpaceOnUse">
<stop stop-color="#DCFCFE"/>
<stop offset="1" stop-color="#47C7E1"/>
</linearGradient>
<linearGradient id="paint1_linear_35_582" x1="98.4531" y1="160.912" x2="112.483" y2="171.235" gradientUnits="userSpaceOnUse">
<stop stop-color="#DCFCFE"/>
<stop offset="1" stop-color="#47C7E1"/>
</linearGradient>
<linearGradient id="paint2_linear_35_582" x1="67.7472" y1="165.235" x2="83.3354" y2="176.706" gradientUnits="userSpaceOnUse">
<stop stop-color="#DCFCFE"/>
<stop offset="1" stop-color="#47C7E1"/>
</linearGradient>
<linearGradient id="paint3_linear_35_582" x1="221.453" y1="160.912" x2="235.483" y2="171.235" gradientUnits="userSpaceOnUse">
<stop stop-color="#DCFCFE"/>
<stop offset="1" stop-color="#47C7E1"/>
</linearGradient>
<linearGradient id="paint4_linear_35_582" x1="95.8649" y1="239.265" x2="106.777" y2="247.294" gradientUnits="userSpaceOnUse">
<stop stop-color="#DCFCFE"/>
<stop offset="1" stop-color="#47C7E1"/>
</linearGradient>
<linearGradient id="paint5_linear_35_582" x1="231.865" y1="239.265" x2="242.777" y2="247.294" gradientUnits="userSpaceOnUse">
<stop stop-color="#DCFCFE"/>
<stop offset="1" stop-color="#47C7E1"/>
</linearGradient>
<linearGradient id="paint6_linear_35_582" x1="254.747" y1="165.235" x2="270.336" y2="176.706" gradientUnits="userSpaceOnUse">
<stop stop-color="#DCFCFE"/>
<stop offset="1" stop-color="#47C7E1"/>
</linearGradient>
<linearGradient id="paint7_linear_35_582" x1="196.335" y1="106.882" x2="215.041" y2="120.647" gradientUnits="userSpaceOnUse">
<stop stop-color="#DCFCFE"/>
<stop offset="1" stop-color="#47C7E1"/>
</linearGradient>
<linearGradient id="paint8_linear_35_582" x1="102.335" y1="131.882" x2="121.041" y2="145.647" gradientUnits="userSpaceOnUse">
<stop stop-color="#DCFCFE"/>
<stop offset="1" stop-color="#47C7E1"/>
</linearGradient>
<linearGradient id="paint9_linear_35_582" x1="155.806" y1="71.5" x2="182.306" y2="91" gradientUnits="userSpaceOnUse">
<stop stop-color="#DCFCFE"/>
<stop offset="1" stop-color="#47C7E1"/>
</linearGradient>
<linearGradient id="paint10_linear_35_582" x1="72.5707" y1="146.941" x2="81.9237" y2="153.824" gradientUnits="userSpaceOnUse">
<stop stop-color="#DCFCFE"/>
<stop offset="1" stop-color="#47C7E1"/>
</linearGradient>
<linearGradient id="paint11_linear_35_582" x1="143.567" y1="130.5" x2="143.567" y2="155.5" gradientUnits="userSpaceOnUse">
<stop stop-color="#DCFCFE"/>
<stop offset="1" stop-color="#4AC8E1"/>
</linearGradient>
<linearGradient id="paint12_linear_35_582" x1="200.806" y1="236" x2="219.806" y2="267.5" gradientUnits="userSpaceOnUse">
<stop stop-color="#DAFBFE"/>
<stop offset="0.994192" stop-color="#4BC8E1"/>
</linearGradient>
</defs>
</svg>
